<svg width="16" height="16" viewBox="0 0 16 16" fill="none" xmlns="http://www.w3.org/2000/svg">
<rect y="0.000488281" width="16" height="16" fill="white" fill-opacity="0.01"/>
<mask id="mask9" masktype="alpha" maskUnits="userSpaceOnUse" x="1" y="1" width="14" height="14">
<path fill-rule="evenodd" clip-rule="evenodd" d="M7.23762 5.55917C7.58302 5.0937 7.70687 4.60313 7.31623 4.17011C6.4396 2.94346 5.85004 2.1849 5.48024 1.81959C4.7772 1.12511 3.62068 1.21905 3.0118 1.819C2.68476 2.14124 2.57405 2.2519 2.23825 2.59298C0.367816 4.46441 1.5085 8.42057 4.54087 11.4559C7.57254 14.4906 11.5283 15.6319 13.4027 13.7565C13.7125 13.4578 13.9749 13.1953 14.1818 12.9766C14.7785 12.3459 14.8691 11.2404 14.1779 10.5222C13.8235 10.154 13.1002 9.59288 11.8219 8.67853C11.4304 8.32846 10.9662 8.40433 10.5406 8.68353C10.3359 8.81783 10.1869 8.95369 9.90564 9.23528L9.39481 9.74639C9.32753 9.81371 8.41393 9.35618 7.52708 8.46846C6.63975 7.58026 6.18254 6.66661 6.2495 6.59965L6.76069 6.08819C6.84994 5.99885 6.8926 5.95559 6.94733 5.89808C7.06133 5.77826 7.15572 5.66953 7.23762 5.55917ZM10.337 10.6892L10.8479 10.178C11.0028 10.023 11.1031 9.92773 11.1847 9.86203C12.3045 10.6662 12.953 11.1718 13.2179 11.447C13.3769 11.6123 13.3522 11.9138 13.214 12.0599C13.0226 12.2622 12.7741 12.5109 12.469 12.8051C11.257 14.0176 8.06378 13.0964 5.48326 10.5133C2.90194 7.92945 1.9811 4.73577 3.18397 3.53223C3.51842 3.19256 3.62438 3.08665 3.94675 2.76901C4.06762 2.64991 4.39686 2.62317 4.54389 2.76841C4.8286 3.04966 5.35674 3.7259 6.13365 4.80813C6.09343 4.85806 6.0432 4.91449 5.98206 4.97873C5.9372 5.02589 5.89982 5.06378 5.8181 5.14558L5.30742 5.65654C4.43865 6.52524 5.17852 8.00372 6.58449 9.41107C7.9895 10.8175 9.46853 11.5582 10.337 10.6892Z" fill="white"/>
</mask>
<g mask="url(#mask9)">
<rect y="0.000488281" width="16" height="16" fill="#FFFA46"/>
</g>
</svg>
