<svg width="17" height="17" viewBox="0 0 17 17" fill="none" xmlns="http://www.w3.org/2000/svg">
<rect x="0.75" y="0.750183" width="16" height="16" fill="white" fill-opacity="0.01"/>
<mask id="mask20" masktype="alpha" maskUnits="userSpaceOnUse" x="1" y="1" width="16" height="16">
<path fill-rule="evenodd" clip-rule="evenodd" d="M8.75027 16.0835C4.70018 16.0835 1.41693 12.8003 1.41693 8.7502C1.41693 4.70012 4.70018 1.41687 8.75027 1.41687C12.8004 1.41687 16.0836 4.70012 16.0836 8.7502C16.0836 12.8003 12.8004 16.0835 8.75027 16.0835ZM8.74959 14.7501C12.0633 14.7501 14.7496 12.0638 14.7496 8.75013C14.7496 5.43643 12.0633 2.75013 8.74959 2.75013C5.43588 2.75013 2.74959 5.43643 2.74959 8.75013C2.74959 12.0638 5.43588 14.7501 8.74959 14.7501ZM5.41635 9.41682H9.80687L8.27828 10.9454L9.22108 11.8882L12.3592 8.75016L9.22108 5.61209L8.27828 6.55489L9.80687 8.08349H5.41635V9.41682Z" fill="white"/>
</mask>
<g mask="url(#mask20)">
<rect x="0.75" y="0.750183" width="16" height="16" fill="black"/>
</g>
</svg>
