<svg width="14" height="14" viewBox="0 0 14 14" fill="none" xmlns="http://www.w3.org/2000/svg">
<path fill-rule="evenodd" clip-rule="evenodd" d="M2.25888 1.11612C1.77073 0.627961 0.979272 0.627961 0.491117 1.11612C0.00296116 1.60427 0.00296116 2.39573 0.491117 2.88388L4.92022 7.31299L0.770574 11.4626C0.282418 11.9508 0.282418 12.7422 0.770574 13.2304C1.25873 13.7186 2.05019 13.7186 2.53834 13.2304L6.68799 9.08076L10.8376 13.2304C11.3258 13.7186 12.1172 13.7186 12.6054 13.2304C13.0936 12.7422 13.0936 11.9508 12.6054 11.4626L8.45576 7.31299L12.8849 2.88388C13.373 2.39573 13.373 1.60427 12.8849 1.11612C12.3967 0.627961 11.6052 0.627961 11.1171 1.11612L6.68799 5.54522L2.25888 1.11612Z" fill="#1F2023"/>
</svg>
