<svg width="31" height="31" viewBox="0 0 31 31" fill="none" xmlns="http://www.w3.org/2000/svg">
<path fill-rule="evenodd" clip-rule="evenodd" d="M21.8292 9.6875H9.17083C8.86083 9.6875 8.57666 9.88125 8.46041 10.1654C8.34416 10.4496 8.39583 10.7854 8.62833 11.005L13.5883 15.965V21.6871C13.5883 21.9583 13.7304 22.2037 13.95 22.3458L16.2233 23.7667C16.3525 23.8442 16.4946 23.8829 16.6367 23.8829C16.7658 23.8829 16.895 23.8571 17.0113 23.7796C17.2567 23.6375 17.4117 23.3792 17.4117 23.1079V15.965L22.3717 11.005C22.5913 10.7854 22.6558 10.4496 22.5396 10.1654C22.4233 9.88125 22.1392 9.6875 21.8292 9.6875Z" fill="#22A6B3"/>
<path fill-rule="evenodd" clip-rule="evenodd" d="M15.5 2.58325C8.3829 2.58325 2.58331 8.38284 2.58331 15.4999C2.58331 22.617 8.3829 28.4166 15.5 28.4166C22.6171 28.4166 28.4166 22.617 28.4166 15.4999C28.4166 8.38284 22.6171 2.58325 15.5 2.58325ZM15.5 26.8666C9.2354 26.8666 4.13331 21.7645 4.13331 15.4999C4.13331 9.23534 9.2354 4.13325 15.5 4.13325C21.7646 4.13325 26.8666 9.23534 26.8666 15.4999C26.8666 21.7645 21.7646 26.8666 15.5 26.8666Z" fill="#EE7F0D"/>
<path fill-rule="evenodd" clip-rule="evenodd" d="M15.5 2.58325C8.3829 2.58325 2.58331 8.38284 2.58331 15.4999C2.58331 22.617 8.3829 28.4166 15.5 28.4166C22.6171 28.4166 28.4166 22.617 28.4166 15.4999C28.4166 8.38284 22.6171 2.58325 15.5 2.58325ZM15.5 26.8666C9.2354 26.8666 4.13331 21.7645 4.13331 15.4999C4.13331 9.23534 9.2354 4.13325 15.5 4.13325C21.7646 4.13325 26.8666 9.23534 26.8666 15.4999C26.8666 21.7645 21.7646 26.8666 15.5 26.8666Z" fill="white" fill-opacity="0.01"/>
</svg>
