<svg width="35" height="35" viewBox="0 0 35 35" fill="none" xmlns="http://www.w3.org/2000/svg">
<path d="M27.3438 10.3906H34.9316V9.1383L32.0673 2.9852C31.6995 2.19504 30.576 2.19504 30.2081 2.9852L27.3438 9.1383V10.3906Z" fill="#FDBF00"/>
<path d="M33.2227 35H29.0527C28.4864 35 28.0273 34.5409 28.0273 33.9746V29.8047C28.0273 29.2384 28.4864 28.7793 29.0527 28.7793H33.2227C33.7889 28.7793 34.248 29.2384 34.248 29.8047V33.9746C34.248 34.5409 33.7889 35 33.2227 35Z" fill="#00429D"/>
<path d="M33.2217 28.7793H31.1367V35H33.2217C33.788 35 34.2471 34.5409 34.2471 33.9746V29.8047C34.2471 29.2384 33.788 28.7793 33.2217 28.7793Z" fill="#00347B"/>
<path fill-rule="evenodd" clip-rule="evenodd" d="M1.09375 3.07617H23.9258V33.9745H1.09375V3.07617Z" fill="#FFF4F4"/>
<path fill-rule="evenodd" clip-rule="evenodd" d="M12.5098 3.07617H23.9258V33.9745H12.5098V3.07617Z" fill="#F6EFEA"/>
<path d="M23.9258 34.9999H1.09375C0.527461 34.9999 0.0683594 34.5408 0.0683594 33.9745V3.07617C0.0683594 2.50988 0.527461 2.05078 1.09375 2.05078H23.9258C24.4921 2.05078 24.9512 2.50988 24.9512 3.07617V33.9745C24.9512 34.5408 24.4921 34.9999 23.9258 34.9999ZM2.11914 32.9492H22.9004V4.10156H2.11914V32.9492Z" fill="#FDBF00"/>
<path d="M23.9258 2.05078H12.5098V4.10156H22.9004V32.9492H12.5098V34.9999H23.9258C24.4921 34.9999 24.9512 34.5408 24.9512 33.9745V3.07617C24.9512 2.50988 24.4921 2.05078 23.9258 2.05078Z" fill="#FF8856"/>
<path fill-rule="evenodd" clip-rule="evenodd" d="M5.19531 21.1914C5.7601 21.1914 6.2207 20.7308 6.2207 20.166C6.2207 19.6013 5.7601 19.1406 5.19531 19.1406C4.6306 19.1406 4.16992 19.6012 4.16992 20.166C4.16992 20.7308 4.63053 21.1914 5.19531 21.1914Z" fill="#BEE75E"/>
<path d="M19.8241 21.1914H9.29688C8.73059 21.1914 8.27148 20.7323 8.27148 20.166C8.27148 19.5997 8.73059 19.1406 9.29688 19.1406H19.824C20.3903 19.1406 20.8494 19.5997 20.8494 20.166C20.8494 20.7323 20.3904 21.1914 19.8241 21.1914Z" fill="#7DD5F4"/>
<path fill-rule="evenodd" clip-rule="evenodd" d="M5.19531 25.293C5.7601 25.293 6.2207 24.8323 6.2207 24.2676C6.2207 23.7028 5.7601 23.2422 5.19531 23.2422C4.6306 23.2422 4.16992 23.7028 4.16992 24.2676C4.16992 24.8324 4.63053 25.293 5.19531 25.293Z" fill="#BEE75E"/>
<path d="M19.8243 25.293H9.29688C8.73059 25.293 8.27148 24.8339 8.27148 24.2676C8.27148 23.7013 8.73059 23.2422 9.29688 23.2422H19.8243C20.3906 23.2422 20.8497 23.7013 20.8497 24.2676C20.8497 24.8339 20.3906 25.293 19.8243 25.293Z" fill="#7DD5F4"/>
<path fill-rule="evenodd" clip-rule="evenodd" d="M5.19531 29.3945C5.7601 29.3945 6.2207 28.9339 6.2207 28.3691C6.2207 27.8044 5.7601 27.3438 5.19531 27.3438C4.6306 27.3438 4.16992 27.8044 4.16992 28.3691C4.16992 28.9339 4.63053 29.3945 5.19531 29.3945Z" fill="#BEE75E"/>
<path d="M19.8428 29.3945H9.29688C8.73059 29.3945 8.27148 28.9354 8.27148 28.3691C8.27148 27.8029 8.73059 27.3438 9.29688 27.3438H19.8427C20.409 27.3438 20.8681 27.8029 20.8681 28.3691C20.8681 28.9354 20.4091 29.3945 19.8428 29.3945Z" fill="#7DD5F4"/>
<path d="M17.6367 6.15234H7.38281C6.81652 6.15234 6.35742 5.69324 6.35742 5.12695V1.02539C6.35742 0.459102 6.81652 0 7.38281 0H17.6367C18.203 0 18.6621 0.459102 18.6621 1.02539V5.12695C18.6621 5.69324 18.203 6.15234 17.6367 6.15234Z" fill="#7DD5F4"/>
<path d="M15.0389 10.7324H13.5351V9.22852C13.5351 8.66223 13.076 8.20312 12.5097 8.20312C11.9434 8.20312 11.4843 8.66223 11.4843 9.22852V10.7324H9.98047C9.41418 10.7324 8.95508 11.1915 8.95508 11.7577C8.95508 12.324 9.41418 12.7831 9.98047 12.7831H11.4843V14.287C11.4843 14.8533 11.9434 15.3124 12.5097 15.3124C13.076 15.3124 13.5351 14.8533 13.5351 14.287V12.7831H15.0389C15.6052 12.7831 16.0643 12.324 16.0643 11.7577C16.0643 11.1915 15.6052 10.7324 15.0389 10.7324Z" fill="#FF8856"/>
<path d="M27.3438 9.0918H34.9316V25.0413H27.3438V9.0918Z" fill="#7DD5F4"/>
<path d="M28.3691 30.8301H33.9062C34.4725 30.8301 34.9316 30.371 34.9316 29.8048V24.6777H27.3438V29.8048C27.3438 30.371 27.8029 30.8301 28.3691 30.8301Z" fill="#FDBF00"/>
<path d="M17.6367 0H12.5098V6.15234H17.6367C18.203 6.15234 18.6621 5.69324 18.6621 5.12695V1.02539C18.6621 0.459102 18.203 0 17.6367 0Z" fill="#4793FF"/>
<path d="M19.8241 19.1406H12.5098V21.1914H19.824C20.3903 21.1914 20.8494 20.7323 20.8494 20.166C20.8494 19.5997 20.3904 19.1406 19.8241 19.1406Z" fill="#4793FF"/>
<path d="M19.8243 23.2422H12.5098V25.293H19.8243C20.3906 25.293 20.8497 24.8339 20.8497 24.2676C20.8497 23.7013 20.3906 23.2422 19.8243 23.2422Z" fill="#4793FF"/>
<path d="M19.8428 27.3438H12.5098V29.3945H19.8428C20.4091 29.3945 20.8682 28.9354 20.8682 28.3691C20.8682 27.8029 20.4091 27.3438 19.8428 27.3438Z" fill="#4793FF"/>
<path d="M15.039 10.7324H13.5352V9.22852C13.5352 8.66223 13.0761 8.20312 12.5098 8.20312V15.3124C13.0761 15.3124 13.5352 14.8533 13.5352 14.287V12.7831H15.039C15.6053 12.7831 16.0644 12.324 16.0644 11.7577C16.0644 11.1915 15.6053 10.7324 15.039 10.7324Z" fill="#FF435B"/>
<path d="M32.0663 2.98519C31.8824 2.59014 31.5096 2.39258 31.1367 2.39258V10.3906H34.9307V9.13828L32.0663 2.98519Z" fill="#FF8856"/>
<path d="M31.1367 9.0918H34.9307V25.0413H31.1367V9.0918Z" fill="#4793FF"/>
<path d="M31.1367 24.6777V30.8301H33.9053C34.4716 30.8301 34.9307 30.371 34.9307 29.8048V24.6777H31.1367Z" fill="#FF8856"/>
</svg>
