<svg width="46" height="46" viewBox="0 0 46 46" fill="none" xmlns="http://www.w3.org/2000/svg">
<path d="M43.0352 37.375V44.6523C43.0352 45.3962 42.4314 46 41.6875 46C40.9436 46 40.3398 45.3962 40.3398 44.6523V37.375C40.3398 36.6311 40.9436 36.0273 41.6875 36.0273C42.4314 36.0273 43.0352 36.6311 43.0352 37.375Z" fill="#FF7038"/>
<path d="M43.0352 37.375V44.6523C43.0352 45.3962 42.4314 46 41.6875 46V36.0273C42.4314 36.0273 43.0352 36.6311 43.0352 37.375Z" fill="#CEAD29"/>
<path d="M46 27.3109V37.3734C46 38.1173 45.3962 38.721 44.6523 38.721H38.7227C37.9788 38.721 37.375 38.1173 37.375 37.3734V27.3109C37.375 26.177 37.8377 25.1097 38.6768 24.3047C40.3692 22.6829 43.0044 22.6817 44.6982 24.3047C45.5373 25.1097 46 26.177 46 27.3109Z" fill="#96D750"/>
<path d="M46 27.3125V37.375C46 38.1189 45.3963 38.7227 44.6523 38.7227H41.6875V23.0898C44.0228 23.0898 46 24.9768 46 27.3125Z" fill="#80C03B"/>
<path d="M44.6523 43.3047H32.3438C31.5995 43.3047 30.9961 43.9081 30.9961 44.6523C30.9961 45.3966 31.5995 46 32.3438 46H44.6523C45.3966 46 46 45.3966 46 44.6523C46 43.9081 45.3966 43.3047 44.6523 43.3047Z" fill="#05303D"/>
<path d="M34.4102 1.34766V46H1.34766C0.60375 46 0 45.3963 0 44.6523V1.34766C0 0.60375 0.60375 0 1.34766 0H33.0625C33.8064 0 34.4102 0.60375 34.4102 1.34766Z" fill="#0A789B"/>
<path d="M34.4102 1.34766V46H17.25V0H33.0625C33.8064 0 34.4102 0.60375 34.4102 1.34766Z" fill="#08475E"/>
<path d="M14.375 5.83984H7.1875C6.44323 5.83984 5.83984 6.44323 5.83984 7.1875V12.9375C5.83984 13.6818 6.44323 14.2852 7.1875 14.2852H14.375C15.1193 14.2852 15.7227 13.6818 15.7227 12.9375V7.1875C15.7227 6.44323 15.1193 5.83984 14.375 5.83984Z" fill="#E0EAEF"/>
<path d="M27.3125 5.83984H20.125C19.3807 5.83984 18.7773 6.44323 18.7773 7.1875V12.9375C18.7773 13.6818 19.3807 14.2852 20.125 14.2852H27.3125C28.0568 14.2852 28.6602 13.6818 28.6602 12.9375V7.1875C28.6602 6.44323 28.0568 5.83984 27.3125 5.83984Z" fill="#CCE0E5"/>
<path d="M27.3125 17.3398H20.125C19.3807 17.3398 18.7773 17.9432 18.7773 18.6875V24.4375C18.7773 25.1818 19.3807 25.7852 20.125 25.7852H27.3125C28.0568 25.7852 28.6602 25.1818 28.6602 24.4375V18.6875C28.6602 17.9432 28.0568 17.3398 27.3125 17.3398Z" fill="#CCE0E5"/>
<path d="M14.375 17.3398H7.1875C6.44323 17.3398 5.83984 17.9432 5.83984 18.6875V24.4375C5.83984 25.1818 6.44323 25.7852 7.1875 25.7852H14.375C15.1193 25.7852 15.7227 25.1818 15.7227 24.4375V18.6875C15.7227 17.9432 15.1193 17.3398 14.375 17.3398Z" fill="#E0EAEF"/>
<path d="M7.1875 38.9023C6.44359 38.9023 5.83984 39.5061 5.83984 40.25V46H8.53516V40.25C8.53516 39.5061 7.93141 38.9023 7.1875 38.9023Z" fill="#E0EAEF"/>
<path d="M27.3125 38.9023C26.5686 38.9023 25.9648 39.5061 25.9648 40.25V46H28.6602V40.25C28.6602 39.5061 28.0564 38.9023 27.3125 38.9023Z" fill="#CCE0E5"/>
<path d="M22.9102 35.9375V46H11.5898V35.9375C11.5898 32.8163 14.1288 30.2773 17.25 30.2773C20.3712 30.2773 22.9102 32.8163 22.9102 35.9375Z" fill="#FFDD54"/>
<path d="M22.9102 35.9375V46H17.25V30.2773C20.3712 30.2773 22.9102 32.8163 22.9102 35.9375Z" fill="#FFB454"/>
</svg>
