<svg width="43" height="43" viewBox="0 0 43 43" fill="none" xmlns="http://www.w3.org/2000/svg">
<g clip-path="url(#clip0)">
<path d="M14.3379 15.5997C14.0155 15.5997 13.6931 15.4768 13.4471 15.2307L10.5721 12.3556C10.0801 11.8636 10.0801 11.066 10.5721 10.574C11.0641 10.0821 11.8617 10.0821 12.3537 10.574L15.2287 13.4492C15.7207 13.9411 15.7207 14.7387 15.2287 15.2307C14.9827 15.4767 14.6603 15.5997 14.3379 15.5997Z" fill="#007A9F"/>
<path d="M8.69332 35.5674C8.3709 35.5674 8.04849 35.4445 7.80258 35.1984C7.3106 34.7064 7.3106 33.9088 7.80258 33.4168L13.4715 27.7479C13.9634 27.2559 14.7611 27.2559 15.2531 27.7479C15.7451 28.2399 15.7451 29.0375 15.2531 29.5295L9.58414 35.1984C9.33815 35.4445 9.01573 35.5674 8.69332 35.5674Z" fill="#007A9F"/>
<path d="M34.6512 35.911C34.3288 35.911 34.0064 35.7881 33.7605 35.542L27.912 29.6935C27.42 29.2015 27.42 28.4039 27.912 27.912C28.4039 27.42 29.2015 27.42 29.6935 27.912L35.542 33.7605C36.034 34.2524 36.034 35.05 35.542 35.542C35.296 35.7881 34.9736 35.911 34.6512 35.911Z" fill="#00607F"/>
<path d="M28.5097 15.7507C28.1873 15.7507 27.865 15.6278 27.619 15.3817C27.127 14.8897 27.127 14.0921 27.619 13.6002L30.6452 10.574C31.1372 10.0821 31.9348 10.0821 32.4268 10.574C32.9187 11.066 32.9187 11.8636 32.4268 12.3556L29.4005 15.3817C29.1545 15.6277 28.8321 15.7507 28.5097 15.7507Z" fill="#00607F"/>
<path d="M11.0018 42.9999H1.25975C0.564034 42.9999 0 42.4359 0 41.7402V40.9843C0 37.6038 2.75029 34.8535 6.1308 34.8535C9.51131 34.8535 12.2616 37.6038 12.2616 40.9843V41.7402C12.2616 42.4359 11.6976 42.9999 11.0018 42.9999Z" fill="#FF8856"/>
<path d="M6.13086 37.373C4.04696 37.373 2.35156 35.6777 2.35156 33.5938C2.35156 31.5098 4.04696 29.8145 6.13086 29.8145C8.21476 29.8145 9.91016 31.5098 9.91016 33.5938C9.91016 35.6777 8.21476 37.373 6.13086 37.373Z" fill="#FFE4C1"/>
<path d="M41.7401 42.9999H31.998C31.3023 42.9999 30.7383 42.4359 30.7383 41.7402V40.9843C30.7383 37.6038 33.4886 34.8535 36.8691 34.8535C40.2496 34.8535 42.9999 37.6038 42.9999 40.9843V41.7402C42.9999 42.4359 42.4359 42.9999 41.7401 42.9999Z" fill="#00CB75"/>
<path d="M36.8691 37.373C34.7852 37.373 33.0898 35.6777 33.0898 33.5938C33.0898 31.5098 34.7852 29.8145 36.8691 29.8145C38.953 29.8145 40.6484 31.5098 40.6484 33.5938C40.6484 35.6777 38.953 37.373 36.8691 37.373Z" fill="#FDD1A3"/>
<path d="M11.0018 13.1855H1.25975C0.564034 13.1855 0 12.6214 0 11.9257V11.1699C0 7.78936 2.75029 5.03906 6.1308 5.03906C9.51131 5.03906 12.2616 7.78936 12.2616 11.1699V11.9257C12.2616 12.6214 11.6976 13.1855 11.0018 13.1855Z" fill="#BEE75E"/>
<path d="M6.13086 7.55859C4.04696 7.55859 2.35156 5.8632 2.35156 3.7793C2.35156 1.69539 4.04696 0 6.13086 0C8.21476 0 9.91016 1.69539 9.91016 3.7793C9.91016 5.8632 8.21476 7.55859 6.13086 7.55859Z" fill="#FFE4C1"/>
<path d="M41.7401 13.1855H31.998C31.3023 13.1855 30.7383 12.6214 30.7383 11.9257V11.1699C30.7383 7.78936 33.4886 5.03906 36.8691 5.03906C40.2496 5.03906 42.9999 7.78936 42.9999 11.1699V11.9257C42.9999 12.6214 42.4359 13.1855 41.7401 13.1855Z" fill="#FF435B"/>
<path d="M36.8691 7.55859C34.7852 7.55859 33.0898 5.8632 33.0898 3.7793C33.0898 1.69539 34.7852 0 36.8691 0C38.953 0 40.6484 1.69539 40.6484 3.7793C40.6484 5.8632 38.953 7.55859 36.8691 7.55859Z" fill="#FDD1A3"/>
<path d="M21.4999 27.6833C19.5569 27.6833 17.7364 31.3791 16.178 30.4488C13.1309 28.6298 11.0859 25.2991 11.0859 21.4999C11.0859 15.7576 15.7576 11.0859 21.5 11.0859C27.2424 11.0859 31.9139 15.7576 31.9139 21.4999C31.9139 25.2991 29.8689 28.6298 26.8219 30.4488C25.2635 31.3791 23.4429 27.6833 21.4999 27.6833Z" fill="#FFF4F4"/>
<path d="M21.4999 11.0859C21.4895 11.0859 21.4792 11.0863 21.4688 11.0864V27.6842C21.4792 27.6839 21.4895 27.6833 21.4999 27.6833C23.443 27.6833 25.2634 31.379 26.8218 30.4488C29.8689 28.6298 31.9139 25.2992 31.9139 21.4999C31.914 15.7576 27.2422 11.0859 21.4999 11.0859Z" fill="#F6EFEA"/>
<path fill-rule="evenodd" clip-rule="evenodd" d="M21.4993 22.9668C18.5603 22.9668 16.1777 25.3493 16.1777 28.2883V30.448C17.7361 31.3783 19.5562 31.9137 21.4993 31.9137C23.4423 31.9137 25.2624 31.3783 26.8208 30.448V28.2883C26.8208 25.3493 24.4383 22.9668 21.4993 22.9668Z" fill="#7DD5F4"/>
<path fill-rule="evenodd" clip-rule="evenodd" d="M21.4999 22.9668C21.4895 22.9668 21.4792 22.9676 21.4688 22.9676V31.9131C21.4792 31.9131 21.4895 31.9136 21.4999 31.9136C23.443 31.9136 25.263 31.3782 26.8214 30.4479V28.2882C26.8214 25.3493 24.4389 22.9668 21.4999 22.9668Z" fill="#4793FF"/>
<path d="M21.5 28.3652C20.8043 28.3652 20.2402 27.8012 20.2402 27.1055V25.9297C20.2402 25.234 20.8043 24.6699 21.5 24.6699C22.1957 24.6699 22.7598 25.234 22.7598 25.9297V27.1055C22.7598 27.8012 22.1958 28.3652 21.5 28.3652Z" fill="#007A9F"/>
<path d="M21.4999 24.6699C21.4894 24.6699 21.4792 24.6713 21.4688 24.6715V28.3637C21.4792 28.364 21.4894 28.3653 21.4999 28.3653C22.1956 28.3653 22.7597 27.8013 22.7597 27.1056V25.9298C22.7597 25.2339 22.1957 24.6699 21.4999 24.6699Z" fill="#00607F"/>
<path d="M21.4693 26.0011C18.9877 26.0011 16.9688 23.9821 16.9688 21.5006C16.9688 19.019 18.9877 17 21.4693 17C23.951 17 25.9699 19.019 25.9699 21.5006C25.9699 23.9822 23.951 26.0011 21.4693 26.0011Z" fill="#FFE4C1"/>
<path d="M21.4688 17V26.0011C23.9504 26.0011 25.9693 23.9821 25.9693 21.5006C25.9693 19.019 23.9504 17 21.4688 17Z" fill="#FDD1A3"/>
</g>
<defs>
<clipPath id="clip0">
<rect width="43" height="43" fill="white"/>
</clipPath>
</defs>
</svg>
