<svg width="17" height="17" viewBox="0 0 17 17" fill="none" xmlns="http://www.w3.org/2000/svg">
<rect x="0.70166" y="0.614746" width="16" height="16" fill="white" fill-opacity="0.01"/>
<mask id="mask7" masktype="alpha" maskUnits="userSpaceOnUse" x="2" y="1" width="13" height="16">
<path fill-rule="evenodd" clip-rule="evenodd" d="M8.70183 16.1665L9.14031 15.7836C12.8276 12.5639 14.7018 9.75259 14.7018 7.28142C14.7018 3.78186 11.9705 1.28142 8.70183 1.28142C5.4332 1.28142 2.70183 3.78186 2.70183 7.28142C2.70183 9.75259 4.57603 12.5639 8.26334 15.7836L8.70183 16.1665ZM8.70188 14.3904C5.57295 11.5705 4.03521 9.18091 4.03521 7.28142C4.03521 4.54582 6.14462 2.61475 8.70188 2.61475C11.2591 2.61475 13.3685 4.54582 13.3685 7.28142C13.3685 9.18091 11.8308 11.5705 8.70188 14.3904ZM8.70188 3.94809C10.5428 3.94809 12.0352 5.44047 12.0352 7.28142C12.0352 9.12237 10.5428 10.6148 8.70188 10.6148C6.86093 10.6148 5.36855 9.12237 5.36855 7.28142C5.36855 5.44047 6.86093 3.94809 8.70188 3.94809ZM6.70186 7.28142C6.70186 6.17685 7.59729 5.28142 8.70186 5.28142C9.80643 5.28142 10.7019 6.17685 10.7019 7.28142C10.7019 8.38599 9.80643 9.28142 8.70186 9.28142C7.59729 9.28142 6.70186 8.38599 6.70186 7.28142Z" fill="white"/>
</mask>
<g mask="url(#mask7)">
<rect x="0.70166" y="0.614746" width="16" height="16" fill="#FFFA46"/>
</g>
</svg>
