<svg width="25" height="25" viewBox="0 0 17 17" fill="none" xmlns="http://www.w3.org/2000/svg">
<rect x="0.935547" y="0.701843" width="16" height="16" fill="white" fill-opacity="0.01"/>
<mask id="mask0" masktype="alpha" maskUnits="userSpaceOnUse" x="2" y="2" width="14" height="14">
<path fill-rule="evenodd" clip-rule="evenodd" d="M7.60242 12.7018C4.6569 12.7018 2.26909 10.314 2.26909 7.36849C2.26909 4.42297 4.6569 2.03516 7.60242 2.03516C10.5479 2.03516 12.9358 4.42297 12.9358 7.36849C12.9358 8.601 12.5177 9.73586 11.8156 10.639L15.407 14.2304L14.4642 15.1732L10.8728 11.5818C9.96967 12.2838 8.83486 12.7018 7.60242 12.7018ZM11.6022 7.3685C11.6022 9.57764 9.81139 11.3685 7.60225 11.3685C5.39311 11.3685 3.60225 9.57764 3.60225 7.3685C3.60225 5.15936 5.39311 3.3685 7.60225 3.3685C9.81139 3.3685 11.6022 5.15936 11.6022 7.3685Z" fill="white"/>
</mask>
<g mask="url(#mask0)">
<rect x="0.935547" y="0.701843" width="16" height="16" fill="#C3C3C3"/>
</g>
</svg>
