<svg width="46" height="46" viewBox="0 0 46 46" fill="none" xmlns="http://www.w3.org/2000/svg">
<path d="M32.5228 30.9363L33.4041 30.4709L38.7094 27.6103L39.3464 27.2662C40.0017 26.9122 40.7682 26.8243 41.4867 27.0207C42.2051 27.2171 42.8202 27.6828 43.2043 28.321L30.7016 36.9055C29.0162 37.7401 27.1068 38.0098 25.2562 37.6746L18.0292 36.3431C17.3643 36.1764 16.6608 36.2699 16.0625 36.6045L12.1489 39.0788L9.41406 30.1097L9.43742 30.1026C10.281 29.9469 11.0656 29.5628 11.706 28.9921L12.9036 27.9265C14.0784 27.0425 15.4741 26.4992 16.9374 26.3563C18.4007 26.2133 19.8751 26.4762 21.1989 27.1161L21.6948 27.356C22.4707 27.7315 23.3215 27.9265 24.1835 27.9265H28.9928C29.8429 27.9269 30.6651 28.23 31.3119 28.7815C31.9588 29.3331 32.3881 30.097 32.5228 30.9363Z" fill="#F7CAA5"/>
<path d="M39.1726 17.4937V20.9922H29.6034V16.9951C29.6046 16.2031 29.3693 15.4289 28.9277 14.7714C29.526 14.2871 30.2677 14.0144 31.0373 13.9961C31.3099 14.3647 31.6632 14.6663 32.0701 14.8777C32.4769 15.0891 32.9267 15.2049 33.3851 15.2161C33.8435 15.2274 34.2984 15.1339 34.7152 14.9427C35.1319 14.7515 35.4995 14.4677 35.79 14.1129C35.8191 14.0725 35.8522 14.0352 35.8888 14.0015C36.7778 14.0564 37.6124 14.4482 38.2225 15.0971C38.8327 15.746 39.1724 16.603 39.1726 17.4937Z" fill="#F8EC7D"/>
<path d="M38.7056 27.602L38.7101 27.6101L33.4048 30.4707L32.5234 30.9361C32.393 30.1156 31.9798 29.3665 31.3555 28.8185L34.765 26.9811L35.6329 26.5131C36.7048 25.9695 38.1117 26.5571 38.7056 27.602Z" fill="#EDB288"/>
<path d="M36.508 8.16418V9.71938C36.508 10.5441 36.1804 11.335 35.5973 11.9181C35.0142 12.5013 34.2232 12.8289 33.3986 12.8289C32.5739 12.8289 31.783 12.5013 31.1998 11.9181C30.6167 11.335 30.2891 10.5441 30.2891 9.71938V8.16418C30.2891 7.33949 30.6167 6.54858 31.1998 5.96544C31.783 5.38229 32.5739 5.05469 33.3986 5.05469C34.2232 5.05469 35.0142 5.38229 35.5973 5.96544C36.1804 6.54858 36.508 7.33949 36.508 8.16418Z" fill="#F8EC7D"/>
<path d="M34.7235 26.9009L34.7657 26.98L31.3562 28.8173C30.7045 28.2409 29.8642 27.9235 28.9942 27.9252H27.9277L30.7632 26.3834C31.3881 26.0211 32.1151 25.8754 32.8313 25.969C33.5475 26.0626 34.2127 26.3902 34.7235 26.9009Z" fill="#EDB288"/>
<path d="M28.9273 14.7707C29.3689 15.4281 29.6042 16.2023 29.603 16.9943V22.7677H16.4121V16.9943C16.4118 15.9515 16.8191 14.9499 17.5471 14.2032C18.2751 13.4566 19.2661 13.0241 20.3086 12.998C20.6201 13.4193 21.0237 13.7638 21.4885 14.0054C21.9534 14.2471 22.4673 14.3794 22.991 14.3923C23.5147 14.4052 24.0345 14.2984 24.5107 14.0799C24.9869 13.8615 25.4069 13.5373 25.7388 13.1319C25.7723 13.0861 25.8099 13.0434 25.8511 13.0043C26.4652 13.0422 27.0623 13.2213 27.5958 13.5276C28.1294 13.834 28.5851 14.2594 28.9273 14.7707Z" fill="#E48E66"/>
<path d="M26.5599 6.33562V8.11184C26.5599 9.054 26.1857 9.95757 25.5194 10.6238C24.8532 11.29 23.9497 11.6643 23.0075 11.6643C22.0653 11.6643 21.1618 11.29 20.4956 10.6238C19.8294 9.95757 19.4551 9.054 19.4551 8.11184V6.33562C19.4551 5.39346 19.8294 4.48989 20.4956 3.82368C21.1618 3.15748 22.0653 2.7832 23.0075 2.7832C23.9497 2.7832 24.8532 3.15748 25.5194 3.82368C26.1857 4.48989 26.5599 5.39346 26.5599 6.33562Z" fill="#E48E66"/>
<path d="M16.9346 14.6645L17.0748 14.7894C16.6413 15.4432 16.4106 16.2106 16.4118 16.9951V20.9922H6.82812V17.4937C6.82814 16.5811 7.18475 15.7046 7.82188 15.0512C8.45902 14.3977 9.32625 14.0191 10.2386 13.9961C10.5114 14.3647 10.8647 14.6663 11.2716 14.8777C11.6786 15.0891 12.1284 15.2049 12.5869 15.2162C13.0453 15.2274 13.5003 15.1339 13.9171 14.9427C14.334 14.7515 14.7017 14.4677 14.9922 14.1129C15.0212 14.0727 15.054 14.0354 15.0902 14.0015C15.7558 14.0411 16.3961 14.2713 16.9346 14.6645Z" fill="#F8EC7D"/>
<path d="M15.7112 8.16418V9.71938C15.7112 10.5441 15.3836 11.335 14.8004 11.9181C14.2173 12.5013 13.4264 12.8289 12.6017 12.8289C11.777 12.8289 10.9861 12.5013 10.4029 11.9181C9.81979 11.335 9.49219 10.5441 9.49219 9.71938V8.16418C9.49219 7.33949 9.81979 6.54858 10.4029 5.96544C10.9861 5.38229 11.777 5.05469 12.6017 5.05469C13.4264 5.05469 14.2173 5.38229 14.8004 5.96544C15.3836 6.54858 15.7112 7.33949 15.7112 8.16418Z" fill="#F8EC7D"/>
<path d="M12.1495 39.0782L13.4109 43.2155H4.72477L2.79492 27.3887H8.58535L9.41461 30.1091L12.1495 39.0782ZM9.77039 40.4466C9.77039 40.2175 9.70247 39.9936 9.57522 39.8032C9.44797 39.6127 9.2671 39.4643 9.05548 39.3766C8.84387 39.289 8.61102 39.266 8.38637 39.3107C8.16173 39.3554 7.95538 39.4657 7.79341 39.6277C7.63145 39.7896 7.52116 39.996 7.47647 40.2206C7.43179 40.4453 7.45472 40.6781 7.54237 40.8897C7.63003 41.1014 7.77846 41.2822 7.96891 41.4095C8.15935 41.5367 8.38326 41.6046 8.6123 41.6046C8.76439 41.6047 8.91499 41.5747 9.0555 41.5165C9.19601 41.4583 9.32368 41.373 9.43122 41.2655C9.53876 41.1579 9.62407 41.0303 9.68226 40.8898C9.74046 40.7492 9.7704 40.5986 9.77039 40.4466Z" fill="#E48E66"/>
<path d="M8.61316 41.6052C9.25276 41.6052 9.77125 41.0867 9.77125 40.4471C9.77125 39.8076 9.25276 39.2891 8.61316 39.2891C7.97357 39.2891 7.45508 39.8076 7.45508 40.4471C7.45508 41.0867 7.97357 41.6052 8.61316 41.6052Z" fill="#F8EC7D"/>
<path d="M39.0909 26.7915L38.8779 26.9064C38.0174 25.8609 36.5256 25.4558 35.3891 26.032L35.3771 26.0383L34.874 26.3093C34.274 25.8012 33.5319 25.4905 32.7488 25.4198C31.9658 25.3491 31.18 25.5216 30.4986 25.914L27.7897 27.3871H24.184C23.4035 27.3861 22.6332 27.2095 21.9302 26.8704L21.434 26.6304C20.022 25.9438 18.4476 25.6612 16.885 25.8138C15.3223 25.9665 13.8324 26.5485 12.58 27.4955C12.5683 27.5045 12.5568 27.5134 12.5459 27.5235L11.3479 28.5893C10.8957 28.9914 10.361 29.2897 9.78136 29.4631L9.10106 27.2317C9.06737 27.1212 8.99908 27.0245 8.90625 26.9557C8.81342 26.887 8.70096 26.8499 8.58545 26.8499H2.79493C2.71863 26.8499 2.6432 26.8661 2.57363 26.8974C2.50406 26.9287 2.44193 26.9744 2.39135 27.0315C2.34077 27.0887 2.30289 27.1559 2.28021 27.2287C2.25754 27.3016 2.25059 27.3784 2.25982 27.4541L4.18966 43.281C4.2056 43.4117 4.26882 43.5321 4.3674 43.6194C4.46598 43.7067 4.5931 43.7549 4.72477 43.7549H13.4109C13.4951 43.7549 13.5782 43.7351 13.6534 43.6972C13.7286 43.6593 13.7939 43.6043 13.8441 43.5366C13.8942 43.4689 13.9278 43.3904 13.9421 43.3074C13.9564 43.2244 13.9511 43.1391 13.9265 43.0586L12.7855 39.3144L16.3388 37.0683C16.8145 36.8054 17.3724 36.7331 17.8995 36.8662C17.9104 36.8689 17.9214 36.8713 17.9325 36.8733L25.1612 38.2051C27.1258 38.5564 29.1514 38.2703 30.9419 37.3886C30.9648 37.3774 30.9868 37.3644 31.0078 37.35L43.5104 28.7654C43.6237 28.6876 43.703 28.5696 43.7321 28.4353C43.7612 28.301 43.738 28.1607 43.6671 28.043C43.2126 27.2849 42.4829 26.7315 41.6303 26.4984C40.7777 26.2652 39.868 26.3702 39.0909 26.7915ZM35.8823 26.9908C36.5398 26.6613 37.3671 26.9315 37.8948 27.4363L33.1526 29.9939L32.8752 30.1403C32.7255 29.7141 32.5067 29.3154 32.2275 28.9603L35.8823 26.9908ZM31.0201 26.8579C31.0243 26.8556 31.029 26.8532 31.0328 26.8507C31.4575 26.6051 31.9402 26.478 32.4307 26.4826C32.9212 26.4872 33.4015 26.6233 33.8215 26.8767L31.4137 28.1744C30.9533 27.8392 30.4282 27.6036 29.8718 27.4826L31.0201 26.8579ZM5.20184 42.6767L3.4038 27.928H8.18609L12.683 42.6767H5.20184ZM30.429 36.4387C28.8547 37.205 27.0779 37.452 25.3542 37.1442L18.1431 35.8155C17.3498 35.6201 16.5119 35.7339 15.7995 36.1339C15.7912 36.1385 15.7829 36.1434 15.7748 36.1486L12.4588 38.2451L10.0959 30.4961C10.8245 30.2766 11.4963 29.9007 12.0645 29.3945L13.2453 28.3439C14.339 27.5219 15.6384 27.0176 17.0003 26.8865C18.3622 26.7555 19.7339 27.0027 20.9643 27.601L21.4602 27.841C22.3098 28.2506 23.2405 28.464 24.1837 28.4652H28.993C29.7 28.4656 30.3847 28.7126 30.9292 29.1636C31.4737 29.6146 31.8438 30.2414 31.9758 30.936L28.4908 30.7778C27.2236 30.721 25.9538 30.7797 24.6972 30.9532C24.6267 30.9625 24.5587 30.9856 24.4972 31.0213C24.4357 31.0569 24.3818 31.1044 24.3387 31.1609C24.2956 31.2175 24.2642 31.282 24.2461 31.3508C24.228 31.4196 24.2238 31.4913 24.2335 31.5617C24.2433 31.6321 24.2669 31.6999 24.303 31.7612C24.3391 31.8225 24.3869 31.876 24.4438 31.9187C24.5007 31.9614 24.5654 31.9924 24.6343 32.01C24.7032 32.0276 24.7749 32.0313 24.8453 32.0211C26.0367 31.8563 27.2406 31.8007 28.4421 31.855L32.5435 32.0409C32.5516 32.0409 32.5597 32.0415 32.5679 32.0415C32.7109 32.0415 32.848 31.9847 32.9491 31.8836C33.0502 31.7825 33.107 31.6454 33.107 31.5024C33.107 31.4155 33.1034 31.3288 33.098 31.2424L33.6601 30.9459L39.603 27.7401C40.0592 27.4927 40.5844 27.4031 41.0968 27.4852C41.6093 27.5673 42.0802 27.8166 42.4362 28.1941L30.429 36.4387Z" fill="#63316D"/>
<path d="M6.91602 40.4471C6.91602 40.7828 7.01555 41.1109 7.20204 41.39C7.38852 41.6691 7.65358 41.8867 7.96369 42.0151C8.27381 42.1436 8.61505 42.1772 8.94426 42.1117C9.27348 42.0462 9.57588 41.8846 9.81323 41.6472C10.0506 41.4099 10.2122 41.1075 10.2777 40.7782C10.3432 40.449 10.3096 40.1078 10.1811 39.7977C10.0527 39.4876 9.83514 39.2225 9.55605 39.036C9.27695 38.8495 8.94883 38.75 8.61316 38.75C8.16321 38.7505 7.73182 38.9295 7.41365 39.2476C7.09548 39.5658 6.91652 39.9972 6.91602 40.4471ZM8.61316 39.8281C8.7356 39.8281 8.85528 39.8644 8.95708 39.9325C9.05887 40.0005 9.13821 40.0971 9.18507 40.2103C9.23192 40.3234 9.24418 40.4478 9.22029 40.5679C9.19641 40.688 9.13745 40.7983 9.05088 40.8849C8.96431 40.9714 8.85401 41.0304 8.73393 41.0543C8.61385 41.0782 8.48939 41.0659 8.37627 41.0191C8.26316 40.9722 8.16648 40.8929 8.09846 40.7911C8.03045 40.6893 7.99414 40.5696 7.99414 40.4471C7.99438 40.283 8.05967 40.1257 8.17571 40.0097C8.29175 39.8937 8.44906 39.8284 8.61316 39.8281Z" fill="#63316D"/>
<path d="M27.099 8.11184V6.33562C27.099 5.2505 26.6679 4.20981 25.9006 3.44251C25.1333 2.67521 24.0926 2.24414 23.0075 2.24414C21.9224 2.24414 20.8817 2.67521 20.1144 3.44251C19.3471 4.20981 18.916 5.2505 18.916 6.33562V8.11184C18.916 9.19696 19.3471 10.2376 20.1144 11.005C20.8817 11.7723 21.9224 12.2033 23.0075 12.2033C24.0926 12.2033 25.1333 11.7723 25.9006 11.005C26.6679 10.2376 27.099 9.19696 27.099 8.11184ZM19.9941 8.11184V6.33562C19.9941 5.53643 20.3116 4.76997 20.8767 4.20486C21.4418 3.63974 22.2083 3.32227 23.0075 3.32227C23.8067 3.32227 24.5732 3.63974 25.1383 4.20486C25.7034 4.76997 26.0209 5.53643 26.0209 6.33562V8.11184C26.0209 8.91103 25.7034 9.67749 25.1383 10.2426C24.5732 10.8077 23.8067 11.1252 23.0075 11.1252C22.2083 11.1252 21.4418 10.8077 20.8767 10.2426C20.3116 9.67749 19.9941 8.91103 19.9941 8.11184Z" fill="#63316D"/>
<path d="M16.4118 23.3068H29.6026C29.7456 23.3068 29.8827 23.25 29.9838 23.1489C30.0849 23.0478 30.1417 22.9107 30.1417 22.7677V21.5306H39.1719C39.3148 21.5306 39.452 21.4738 39.5531 21.3727C39.6541 21.2716 39.7109 21.1345 39.7109 20.9915V17.493C39.7099 16.4653 39.3174 15.4765 38.6134 14.7278C37.9093 13.9792 36.9465 13.5268 35.9208 13.4627C35.9099 13.4621 35.899 13.4617 35.8881 13.4617C35.6227 13.4617 35.4887 13.6269 35.3726 13.7701C35.1341 14.0616 34.8323 14.2947 34.4901 14.4518C34.1479 14.6089 33.7743 14.6858 33.3979 14.6766C33.0215 14.6674 32.6521 14.5723 32.318 14.3987C31.9838 14.2251 31.6938 13.9775 31.4698 13.6748C31.4185 13.6052 31.351 13.5489 31.2733 13.5109C31.1955 13.4729 31.1097 13.4542 31.0232 13.4565C30.3232 13.472 29.6394 13.6713 29.0406 14.0343C28.6446 13.5768 28.1616 13.2026 27.6197 12.9335C27.0778 12.6643 26.4878 12.5055 25.884 12.4663C25.873 12.4657 25.8622 12.4653 25.8511 12.4653C25.5858 12.4653 25.4508 12.6315 25.322 12.7901C25.0422 13.1321 24.6879 13.4056 24.2863 13.5899C23.8848 13.7741 23.4464 13.8643 23.0047 13.8535C22.5629 13.8426 22.1295 13.7311 21.7374 13.5274C21.3454 13.3236 21.005 13.0331 20.7422 12.6778C20.691 12.6078 20.6236 12.5513 20.5457 12.5132C20.4678 12.4751 20.3818 12.4566 20.2951 12.4592C19.661 12.4759 19.0374 12.6251 18.4645 12.8973C17.8915 13.1695 17.3819 13.5585 16.9683 14.0395C16.4093 13.6998 15.7758 13.5018 15.1229 13.4627C15.1121 13.4621 15.1013 13.4617 15.0905 13.4617C14.8257 13.4617 14.6917 13.6271 14.5759 13.77C14.3374 14.0615 14.0355 14.2946 13.6932 14.4517C13.3509 14.6088 12.9773 14.6857 12.6008 14.6765C12.2243 14.6673 11.8549 14.5723 11.5207 14.3987C11.1865 14.2251 10.8963 13.9775 10.6723 13.6748C10.6209 13.6052 10.5535 13.549 10.4757 13.5109C10.398 13.4729 10.3122 13.4543 10.2257 13.4565C9.17265 13.483 8.17166 13.9198 7.43622 14.6739C6.70079 15.428 6.28913 16.4397 6.28906 17.493V20.9915C6.28906 21.1345 6.34586 21.2716 6.44695 21.3727C6.54804 21.4738 6.68516 21.5306 6.82812 21.5306H15.8727V22.7677C15.8727 22.9107 15.9295 23.0478 16.0306 23.1489C16.1317 23.25 16.2688 23.3068 16.4118 23.3068ZM33.4578 15.7554C33.959 15.756 34.4546 15.6502 34.9119 15.4451C35.3692 15.2399 35.7778 14.9401 36.1106 14.5654C36.8117 14.671 37.4517 15.0245 37.9145 15.5616C38.3772 16.0988 38.6321 16.784 38.6328 17.493V20.4524H30.1417V16.9944C30.1425 16.2766 29.9722 15.569 29.6449 14.9302C29.997 14.7252 30.388 14.5962 30.793 14.5516C31.1247 14.9318 31.5344 15.2362 31.9942 15.4439C32.4541 15.6516 32.9532 15.7579 33.4578 15.7554ZM20.0621 13.5533C20.4348 13.9849 20.8958 14.3313 21.4139 14.5692C21.9321 14.8072 22.4953 14.931 23.0655 14.9324C23.6357 14.9338 24.1995 14.8127 24.7188 14.5773C25.2381 14.342 25.7008 13.9978 26.0756 13.5681C26.5587 13.6361 27.0222 13.8048 27.436 14.0633C27.8498 14.3217 28.2048 14.6642 28.4779 15.0685C28.4789 15.0703 28.4801 15.0721 28.4814 15.0738C28.862 15.6418 29.0647 16.3103 29.0637 16.9941V22.2284H16.9508V16.9944C16.9506 16.1372 17.2687 15.3105 17.8436 14.6746C18.4185 14.0388 19.2091 13.6392 20.0619 13.5533H20.0621ZM7.36719 20.4524V17.493C7.37165 16.7667 7.64117 16.0671 8.12511 15.5255C8.60905 14.984 9.2741 14.6378 9.9953 14.552C10.3277 14.9291 10.7364 15.2314 11.1943 15.4389C11.6522 15.6464 12.1489 15.7544 12.6516 15.7556C13.1544 15.7569 13.6516 15.6515 14.1106 15.4463C14.5696 15.2411 14.9797 14.9409 15.314 14.5654C15.6853 14.6207 16.0425 14.7466 16.3663 14.9364C16.0414 15.5737 15.8724 16.279 15.8731 16.9944V20.4524H7.36719Z" fill="#63316D"/>
<path d="M37.0471 9.71938V8.16418C37.0471 7.19652 36.6627 6.2685 35.9785 5.58426C35.2942 4.90003 34.3662 4.51562 33.3986 4.51563C32.4309 4.51562 31.5029 4.90003 30.8186 5.58426C30.1344 6.2685 29.75 7.19652 29.75 8.16418V9.71938C29.75 10.687 30.1344 11.6151 30.8186 12.2993C31.5029 12.9835 32.4309 13.3679 33.3986 13.3679C34.3662 13.3679 35.2942 12.9835 35.9785 12.2993C36.6627 11.6151 37.0471 10.687 37.0471 9.71938ZM30.8281 9.71938V8.16418C30.8281 7.48246 31.0989 6.82866 31.581 6.34661C32.063 5.86456 32.7168 5.59375 33.3986 5.59375C34.0803 5.59375 34.7341 5.86456 35.2161 6.34661C35.6982 6.82866 35.969 7.48246 35.969 8.16418V9.71938C35.969 10.4011 35.6982 11.0549 35.2161 11.5369C34.7341 12.019 34.0803 12.2898 33.3986 12.2898C32.7168 12.2898 32.063 12.019 31.581 11.5369C31.0989 11.0549 30.8281 10.4011 30.8281 9.71938Z" fill="#63316D"/>
<path d="M16.2502 9.71938V8.16418C16.2502 7.19652 15.8658 6.2685 15.1816 5.58426C14.4974 4.90003 13.5693 4.51563 12.6017 4.51562C11.634 4.51563 10.706 4.90003 10.0218 5.58426C9.33753 6.2685 8.95313 7.19652 8.95312 8.16418V9.71938C8.95313 10.687 9.33753 11.6151 10.0218 12.2993C10.706 12.9835 11.634 13.3679 12.6017 13.3679C13.5693 13.3679 14.4974 12.9835 15.1816 12.2993C15.8658 11.6151 16.2502 10.687 16.2502 9.71938ZM10.0312 9.71938V8.16418C10.0312 7.48246 10.3021 6.82866 10.7841 6.34661C11.2662 5.86456 11.92 5.59375 12.6017 5.59375C13.2834 5.59375 13.9372 5.86456 14.4192 6.34661C14.9013 6.82866 15.1721 7.48246 15.1721 8.16418V9.71938C15.1721 10.4011 14.9013 11.0549 14.4192 11.5369C13.9372 12.019 13.2834 12.2898 12.6017 12.2898C11.92 12.2898 11.2662 12.019 10.7841 11.5369C10.3021 11.0549 10.0312 10.4011 10.0312 9.71938Z" fill="#63316D"/>
</svg>
