<svg width="140" height="43" viewBox="0 0 140 43" fill="none" xmlns="http://www.w3.org/2000/svg">
<path d="M41.3744 20.6892V34.2871H37.774V32.3262C37.281 32.9048 36.6167 33.4406 35.7809 33.9335C34.9451 34.405 33.97 34.6407 32.8555 34.6407C31.5483 34.6407 30.3803 34.3728 29.3516 33.8371C28.3229 33.2799 27.5085 32.4655 26.9085 31.3939C26.3084 30.3224 26.0084 29.0258 26.0084 27.5042C26.0084 26.0255 26.3191 24.7289 26.9406 23.6145C27.5621 22.4786 28.3872 21.6107 29.4159 21.0106C30.466 20.3891 31.6126 20.0784 32.8555 20.0784C35.0629 20.0784 36.7131 20.8928 37.8061 22.5215L38.0633 20.6892H41.3744ZM33.8521 31.6832C34.8379 31.6832 35.663 31.4368 36.3274 30.9439C37.0132 30.4295 37.4954 29.7116 37.774 28.7901V25.8326C37.5168 24.9968 37.0132 24.3217 36.2631 23.8074C35.5344 23.293 34.6879 23.0359 33.7235 23.0359C32.5877 23.0359 31.6233 23.443 30.8303 24.2574C30.0374 25.0504 29.6409 26.0683 29.6409 27.3113C29.6409 28.1257 29.8338 28.8651 30.2195 29.5294C30.6053 30.1938 31.1196 30.7189 31.7626 31.1046C32.4055 31.4904 33.102 31.6832 33.8521 31.6832ZM53.6111 20.1105C54.8755 20.1105 55.9256 20.4963 56.7615 21.2678C57.6187 22.0179 58.058 22.993 58.0795 24.1931V34.2871H54.4791V25.479C54.4362 24.7718 54.2219 24.2146 53.8361 23.8074C53.4718 23.4002 52.9146 23.1859 52.1645 23.1644C51.0501 23.1644 50.1286 23.6466 49.3999 24.611C48.6927 25.554 48.3391 26.7648 48.3391 28.2436V34.2871H44.7387V20.6892H47.9855L48.2426 23.1001C48.7356 22.1572 49.4428 21.4285 50.3643 20.9142C51.3073 20.3784 52.3895 20.1105 53.6111 20.1105ZM66.3519 14.7099V20.6892H69.888V23.518H66.3519V34.2871H62.7515V23.518H60.4048V20.6892H62.7515V14.7099H66.3519ZM78.3762 31.5547C79.3834 31.5547 80.4014 31.2011 81.4301 30.4938L83.0696 33.162C82.3409 33.612 81.5587 33.9764 80.7229 34.255C79.8871 34.5121 79.0834 34.6407 78.3119 34.6407C76.7474 34.6407 75.3866 34.33 74.2293 33.7085C73.0934 33.087 72.2148 32.2297 71.5933 31.1368C70.9932 30.0438 70.6932 28.7901 70.6932 27.3756C70.6932 26.0469 71.0361 24.8253 71.7219 23.7109C72.4076 22.5965 73.3399 21.7178 74.5186 21.0749C75.6973 20.4106 76.9832 20.0784 78.3762 20.0784C80.2192 20.0784 81.7516 20.6249 82.9731 21.7178C84.1947 22.7894 85.0091 24.311 85.4162 26.2826L74.9365 29.8188C75.3008 30.376 75.783 30.8046 76.3831 31.1046C76.9832 31.4046 77.6475 31.5547 78.3762 31.5547ZM78.0869 22.9073C76.951 22.9073 76.0188 23.3037 75.2901 24.0967C74.5829 24.8896 74.2293 25.9183 74.2293 27.1827C74.2293 27.4185 74.24 27.6006 74.2614 27.7292L81.3979 25.1897C81.1193 24.5253 80.7121 23.9788 80.1764 23.5502C79.6406 23.1216 78.9441 22.9073 78.0869 22.9073ZM102.075 20.6892V34.3514C102.075 35.6158 101.732 36.7517 101.046 37.7589C100.382 38.7876 99.4386 39.5913 98.2171 40.1699C97.0169 40.77 95.6561 41.07 94.1345 41.07C92.6557 41.07 91.4234 40.8343 90.4376 40.3628C89.4518 39.9127 88.4553 39.2484 87.448 38.3697L89.5697 35.8944C90.2555 36.5374 90.952 37.0303 91.6592 37.3732C92.3664 37.7375 93.1701 37.9197 94.0702 37.9197C95.3989 37.9197 96.4597 37.5875 97.2527 36.9231C98.0456 36.2802 98.4528 35.4015 98.4742 34.2871V32.0047C98.0027 32.7977 97.2955 33.4406 96.3526 33.9335C95.431 34.405 94.3488 34.6407 93.1058 34.6407C91.8628 34.6407 90.7162 34.33 89.6661 33.7085C88.616 33.0655 87.7802 32.1976 87.1587 31.1046C86.5372 29.9902 86.2264 28.7579 86.2264 27.4078C86.2264 26.0362 86.5479 24.7932 87.1908 23.6788C87.8552 22.5429 88.7231 21.6643 89.7947 21.0428C90.8877 20.3998 92.0449 20.0784 93.2665 20.0784C94.4023 20.0784 95.431 20.282 96.3526 20.6892C97.2955 21.0749 98.0027 21.5893 98.4742 22.2322L98.7635 20.6892H102.075ZM94.1666 31.6832C95.2167 31.6832 96.1168 31.4261 96.8669 30.9117C97.6384 30.3974 98.1742 29.7009 98.4742 28.8222V25.8647C98.1742 25.0075 97.6384 24.3217 96.8669 23.8074C96.0954 23.293 95.1953 23.0359 94.1666 23.0359C92.945 23.0359 91.9164 23.443 91.0805 24.2574C90.2662 25.0504 89.859 26.0683 89.859 27.3113C89.859 28.1257 90.0519 28.8651 90.4376 29.5294C90.8234 30.1938 91.3377 30.7189 91.9806 31.1046C92.645 31.4904 93.3737 31.6832 94.1666 31.6832ZM108.932 23.8395C109.296 23.1109 109.81 22.4572 110.475 21.8786C111.139 21.2999 111.814 20.8606 112.5 20.5606C113.207 20.2391 113.796 20.0784 114.268 20.0784L114.107 23.6788C113.121 23.5931 112.243 23.7752 111.471 24.2253C110.7 24.6539 110.1 25.254 109.671 26.0255C109.242 26.7756 109.028 27.5792 109.028 28.4365V34.2871H105.428V20.6892H108.674L108.932 23.8395ZM130.21 20.6892V34.2871H126.61V32.3262C126.117 32.9048 125.453 33.4406 124.617 33.9335C123.781 34.405 122.806 34.6407 121.692 34.6407C120.384 34.6407 119.216 34.3728 118.188 33.8371C117.159 33.2799 116.344 32.4655 115.744 31.3939C115.144 30.3224 114.844 29.0258 114.844 27.5042C114.844 26.0255 115.155 24.7289 115.777 23.6145C116.398 22.4786 117.223 21.6107 118.252 21.0106C119.302 20.3891 120.449 20.0784 121.692 20.0784C123.899 20.0784 125.549 20.8928 126.642 22.5215L126.899 20.6892H130.21ZM122.688 31.6832C123.674 31.6832 124.499 31.4368 125.163 30.9439C125.849 30.4295 126.331 29.7116 126.61 28.7901V25.8326C126.353 24.9968 125.849 24.3217 125.099 23.8074C124.37 23.293 123.524 23.0359 122.559 23.0359C121.424 23.0359 120.459 23.443 119.666 24.2574C118.873 25.0504 118.477 26.0683 118.477 27.3113C118.477 28.1257 118.67 28.8651 119.055 29.5294C119.441 30.1938 119.956 30.7189 120.599 31.1046C121.241 31.4904 121.938 31.6832 122.688 31.6832ZM137.175 9.21288V34.2871H133.575V9.21288H137.175Z" fill="#C3C3C3"/>
<path fill-rule="evenodd" clip-rule="evenodd" d="M42.7548 0.160732C42.7548 0.249135 42.5378 0.321464 42.2726 0.321464C42.0074 0.321464 41.7904 0.393794 41.7904 0.482197C41.7904 0.570599 41.5734 0.642929 41.3082 0.642929C41.043 0.642929 40.826 0.715258 40.826 0.803661C40.826 0.892064 40.609 0.964393 40.3438 0.964393C40.0786 0.964393 39.8616 1.03672 39.8616 1.12513C39.8616 1.21353 39.7169 1.28586 39.5401 1.28586C39.3633 1.28586 39.2187 1.35819 39.2187 1.44659C39.2187 1.53499 39.0017 1.60732 38.7365 1.60732C38.4713 1.60732 38.2543 1.67965 38.2543 1.76805C38.2543 1.85646 38.1096 1.92879 37.9328 1.92879C37.756 1.92879 37.6113 2.00112 37.6113 2.08952C37.6113 2.17792 37.4667 2.25025 37.2899 2.25025C37.1131 2.25025 36.9684 2.32258 36.9684 2.41098C36.9684 2.49939 36.8237 2.57172 36.6469 2.57172C36.4701 2.57172 36.3255 2.64405 36.3255 2.73245C36.3255 2.82085 36.1808 2.89318 36.004 2.89318C35.8272 2.89318 35.6826 2.96551 35.6826 3.05391C35.6826 3.14231 35.5379 3.21464 35.3611 3.21464C35.1843 3.21464 35.0396 3.28697 35.0396 3.37538C35.0396 3.46378 34.895 3.53611 34.7182 3.53611C34.5414 3.53611 34.3967 3.60844 34.3967 3.69684C34.3967 3.78524 34.252 3.85757 34.0752 3.85757C33.8984 3.85757 33.7538 3.9299 33.7538 4.01831C33.7538 4.10671 33.625 4.17904 33.4678 4.17904C33.3105 4.17904 33.0776 4.3237 32.9501 4.5005C32.8226 4.67731 32.5897 4.82197 32.4324 4.82197C32.2752 4.82197 32.1464 4.8943 32.1464 4.9827C32.1464 5.0711 32.0177 5.14343 31.8605 5.14343C31.7031 5.14343 31.4702 5.28809 31.3428 5.4649C31.2153 5.6417 30.9983 5.78636 30.8606 5.78636C30.7228 5.78636 30.5058 5.93102 30.3784 6.10782C30.2509 6.28463 30.047 6.42929 29.9251 6.42929C29.8034 6.42929 29.5009 6.64628 29.2533 6.91149C29.0056 7.17669 28.7187 7.39368 28.6158 7.39368C28.5129 7.39368 28.0765 7.75533 27.6459 8.19734C27.2153 8.63936 26.7855 9.001 26.6907 9.001C26.4641 9.001 21.5381 13.9291 21.5381 14.1557C21.5381 14.2518 21.2488 14.6083 20.8952 14.9481C20.5416 15.2879 20.2523 15.674 20.2523 15.8061C20.2523 15.9384 20.1619 16.0832 20.0513 16.128C19.8993 16.1896 19.908 16.2494 20.0869 16.3736C20.2169 16.464 20.2672 16.594 20.1987 16.6626C20.1301 16.7311 20.0123 16.6872 19.9366 16.5649C19.8217 16.3789 19.7574 16.3844 19.5436 16.5982C19.403 16.7388 19.2879 16.9386 19.2879 17.042C19.2879 17.1455 19.0709 17.4329 18.8057 17.6805C18.5405 17.9282 18.3235 18.2466 18.3235 18.3879C18.3235 18.5294 18.2511 18.6449 18.1627 18.6449C18.0743 18.6449 18.002 18.7737 18.002 18.9309C18.002 19.0882 17.8573 19.3211 17.6805 19.4486C17.5037 19.5761 17.3591 19.793 17.3591 19.9308C17.3591 20.0685 17.2144 20.2855 17.0376 20.413C16.8608 20.5405 16.7162 20.7734 16.7162 20.9307C16.7162 21.0879 16.6438 21.2167 16.5554 21.2167C16.467 21.2167 16.3947 21.3613 16.3947 21.5381C16.3947 21.7149 16.3224 21.8596 16.234 21.8596C16.1455 21.8596 16.0732 21.9883 16.0732 22.1455C16.0732 22.3029 15.9286 22.5358 15.7518 22.6632C15.575 22.7907 15.4303 23.0236 15.4303 23.181C15.4303 23.3382 15.358 23.4669 15.2696 23.4669C15.1812 23.4669 15.1088 23.6116 15.1088 23.7884C15.1088 23.9652 15.0365 24.1098 14.9481 24.1098C14.8597 24.1098 14.7874 24.2545 14.7874 24.4313C14.7874 24.6081 14.715 24.7528 14.6266 24.7528C14.5382 24.7528 14.4659 24.8974 14.4659 25.0742C14.4659 25.251 14.3936 25.3957 14.3052 25.3957C14.2168 25.3957 14.1444 25.5403 14.1444 25.7172C14.1444 25.894 14.0721 26.0386 13.9837 26.0386C13.8953 26.0386 13.823 26.2556 13.823 26.5208C13.823 26.786 13.7506 27.003 13.6622 27.003C13.5738 27.003 13.5015 27.1477 13.5015 27.3245C13.5015 27.5013 13.4292 27.6459 13.3408 27.6459C13.2524 27.6459 13.18 27.7906 13.18 27.9674C13.18 28.1442 13.1077 28.2889 13.0193 28.2889C12.9309 28.2889 12.8586 28.4335 12.8586 28.6103C12.8586 28.7871 12.7862 28.9318 12.6978 28.9318C12.6094 28.9318 12.5371 29.1488 12.5371 29.414C12.5371 29.6792 12.4648 29.8962 12.3764 29.8962C12.288 29.8962 12.2156 30.1132 12.2156 30.3784C12.2156 30.6436 12.1433 30.8606 12.0549 30.8606C11.9665 30.8606 11.8942 31.0052 11.8942 31.1821C11.8942 31.3963 11.787 31.5035 11.5727 31.5035C11.3585 31.5035 11.2513 31.3963 11.2513 31.1821C11.2513 31.0052 11.1789 30.8606 11.0905 30.8606C11.0021 30.8606 10.9298 30.6436 10.9298 30.3784C10.9298 30.1132 10.8575 29.8962 10.7691 29.8962C10.6807 29.8962 10.6083 29.7515 10.6083 29.5747C10.6083 29.3979 10.536 29.2533 10.4476 29.2533C10.3592 29.2533 10.2869 29.1086 10.2869 28.9318C10.2869 28.755 10.2145 28.6103 10.1261 28.6103C10.0377 28.6103 9.9654 28.3933 9.9654 28.1281C9.9654 27.8629 9.89307 27.6459 9.80466 27.6459C9.71626 27.6459 9.64393 27.5013 9.64393 27.3245C9.64393 27.1477 9.5716 27.003 9.4832 27.003C9.3948 27.003 9.32247 26.8584 9.32247 26.6815C9.32247 26.5047 9.25014 26.3601 9.16174 26.3601C9.07333 26.3601 9.001 26.2154 9.001 26.0386C9.001 25.8618 8.92867 25.7172 8.84027 25.7172C8.75187 25.7172 8.67954 25.5725 8.67954 25.3957C8.67954 25.2189 8.60721 25.0742 8.51881 25.0742C8.4304 25.0742 8.35808 24.8572 8.35808 24.592C8.35808 24.3268 8.28575 24.1098 8.19734 24.1098C8.10894 24.1098 8.03661 23.9652 8.03661 23.7884C8.03661 23.6116 7.96428 23.4669 7.87588 23.4669C7.78748 23.4669 7.71515 23.3222 7.71515 23.1454C7.71515 22.9686 7.64282 22.824 7.55441 22.824C7.46601 22.824 7.39368 22.6793 7.39368 22.5025C7.39368 22.3257 7.32135 22.181 7.23295 22.181C7.14455 22.181 7.07222 21.9641 7.07222 21.6989C7.07222 21.4336 6.99989 21.2167 6.91149 21.2167C6.82308 21.2167 6.75075 21.072 6.75075 20.8952C6.75075 20.7184 6.67842 20.5737 6.59002 20.5737C6.50162 20.5737 6.42929 20.4291 6.42929 20.2523C6.42929 20.0755 6.35696 19.9308 6.26856 19.9308C6.18015 19.9308 6.10782 19.7861 6.10782 19.6093C6.10782 19.4325 6.03549 19.2879 5.94709 19.2879C5.85869 19.2879 5.78636 19.0709 5.78636 18.8057C5.78636 18.5405 5.71403 18.3235 5.62563 18.3235C5.53722 18.3235 5.4649 18.2098 5.4649 18.071C5.4649 17.4472 5.09827 17.3591 2.50276 17.3591C0.941408 17.3591 0 17.4195 0 17.5198C0 17.6082 0.0723295 17.6805 0.160732 17.6805C0.249135 17.6805 0.321464 17.8975 0.321464 18.1627C0.321464 18.4279 0.393794 18.6449 0.482197 18.6449C0.570599 18.6449 0.642929 18.7896 0.642929 18.9664C0.642929 19.1432 0.715258 19.2879 0.803661 19.2879C0.892064 19.2879 0.964393 19.4325 0.964393 19.6093C0.964393 19.7861 1.03672 19.9308 1.12513 19.9308C1.21353 19.9308 1.28586 20.0755 1.28586 20.2523C1.28586 20.4291 1.35819 20.5737 1.44659 20.5737C1.53499 20.5737 1.60732 20.7184 1.60732 20.8952C1.60732 21.072 1.67965 21.2167 1.76805 21.2167C1.85646 21.2167 1.92879 21.3613 1.92879 21.5381C1.92879 21.7149 2.00112 21.8596 2.08952 21.8596C2.17792 21.8596 2.25025 22.0042 2.25025 22.181C2.25025 22.3579 2.32258 22.5025 2.41098 22.5025C2.49939 22.5025 2.57172 22.6472 2.57172 22.824C2.57172 23.0008 2.64404 23.1454 2.73245 23.1454C2.82085 23.1454 2.89318 23.2901 2.89318 23.4669C2.89318 23.6437 2.96551 23.7884 3.05391 23.7884C3.14231 23.7884 3.21464 24.0054 3.21464 24.2706C3.21464 24.5358 3.28697 24.7528 3.37538 24.7528C3.46378 24.7528 3.53611 24.8974 3.53611 25.0742C3.53611 25.251 3.60844 25.3957 3.69684 25.3957C3.78524 25.3957 3.85757 25.5403 3.85757 25.7172C3.85757 25.894 3.9299 26.0386 4.01831 26.0386C4.10671 26.0386 4.17904 26.1833 4.17904 26.3601C4.17904 26.5369 4.25137 26.6815 4.33977 26.6815C4.42817 26.6815 4.5005 26.8262 4.5005 27.003C4.5005 27.1798 4.57283 27.3245 4.66123 27.3245C4.74964 27.3245 4.82197 27.4691 4.82197 27.6459C4.82197 27.8227 4.8943 27.9674 4.9827 27.9674C5.0711 27.9674 5.14343 28.1844 5.14343 28.4496C5.14343 28.7148 5.21576 28.9318 5.30416 28.9318C5.39257 28.9318 5.4649 29.0605 5.4649 29.2177C5.4649 29.3751 5.60955 29.608 5.78636 29.7355C5.97506 29.8716 6.10782 30.1516 6.10782 30.4139C6.10782 30.6595 6.18015 30.8606 6.26856 30.8606C6.35696 30.8606 6.42929 31.0052 6.42929 31.1821C6.42929 31.3589 6.50162 31.5035 6.59002 31.5035C6.67842 31.5035 6.75075 31.6482 6.75075 31.825C6.75075 32.0018 6.82308 32.1464 6.91149 32.1464C6.99989 32.1464 7.07222 32.2911 7.07222 32.4679C7.07222 32.6447 7.14455 32.7894 7.23295 32.7894C7.32135 32.7894 7.39368 32.934 7.39368 33.1108C7.39368 33.2876 7.46601 33.4323 7.55441 33.4323C7.64282 33.4323 7.71515 33.577 7.71515 33.7538C7.71515 33.9306 7.78748 34.0752 7.87588 34.0752C7.96428 34.0752 8.03661 34.2922 8.03661 34.5574C8.03661 34.8226 8.10894 35.0396 8.19734 35.0396C8.28575 35.0396 8.35808 35.1843 8.35808 35.3611C8.35808 35.5379 8.4304 35.6826 8.51881 35.6826C8.60721 35.6826 8.67954 35.8272 8.67954 36.004C8.67954 36.1808 8.75187 36.3255 8.84027 36.3255C8.92867 36.3255 9.001 36.4701 9.001 36.6469C9.001 36.8238 9.07333 36.9684 9.16174 36.9684C9.25014 36.9684 9.32247 37.0821 9.32247 37.2209C9.32247 37.8375 9.69762 37.9328 12.1239 37.9328C14.3587 37.9328 14.4659 37.918 14.4659 37.6113C14.4659 37.4345 14.5382 37.2899 14.6266 37.2899C14.715 37.2899 14.7874 37.0729 14.7874 36.8077C14.7874 36.5425 14.8597 36.3255 14.9481 36.3255C15.0365 36.3255 15.1088 36.1085 15.1088 35.8433C15.1088 35.5781 15.1812 35.3611 15.2696 35.3611C15.358 35.3611 15.4303 35.1441 15.4303 34.8789C15.4303 34.6137 15.5026 34.3967 15.591 34.3967C15.6794 34.3967 15.7518 34.1797 15.7518 33.9145C15.7518 33.6493 15.8241 33.4323 15.9125 33.4323C16.0009 33.4323 16.0732 33.2153 16.0732 32.9501C16.0732 32.6849 16.1455 32.4679 16.234 32.4679C16.3224 32.4679 16.3947 32.3232 16.3947 32.1464C16.3947 31.9696 16.467 31.825 16.5554 31.825C16.6438 31.825 16.7162 31.608 16.7162 31.3428C16.7162 31.0776 16.7885 30.8606 16.8769 30.8606C16.9653 30.8606 17.0376 30.7159 17.0376 30.5391C17.0376 30.3623 17.1099 30.2177 17.1983 30.2177C17.2867 30.2177 17.3591 30.0007 17.3591 29.7355C17.3591 29.4703 17.4314 29.2533 17.5198 29.2533C17.6082 29.2533 17.6805 29.1086 17.6805 28.9318C17.6805 28.755 17.7529 28.6103 17.8413 28.6103C17.9297 28.6103 18.002 28.4657 18.002 28.2889C18.002 28.1121 18.0743 27.9674 18.1627 27.9674C18.2511 27.9674 18.3235 27.8227 18.3235 27.6459C18.3235 27.4691 18.3958 27.3245 18.4842 27.3245C18.5726 27.3245 18.6449 27.1798 18.6449 27.003C18.6449 26.8262 18.7173 26.6815 18.8057 26.6815C18.8941 26.6815 18.9664 26.5369 18.9664 26.3601C18.9664 26.1833 19.0387 26.0386 19.1271 26.0386C19.2155 26.0386 19.2879 25.8375 19.2879 25.5919C19.2879 25.3296 19.4206 25.0496 19.6093 24.9135C19.7861 24.786 19.9308 24.5531 19.9308 24.3958C19.9308 24.2386 20.0031 24.1098 20.0915 24.1098C20.1799 24.1098 20.2523 23.9652 20.2523 23.7884C20.2523 23.6116 20.3246 23.4669 20.413 23.4669C20.5014 23.4669 20.5737 23.3222 20.5737 23.1454C20.5737 22.9686 20.6461 22.824 20.7345 22.824C20.8229 22.824 20.8952 22.6793 20.8952 22.5025C20.8952 22.3257 20.9675 22.181 21.0559 22.181C21.1443 22.181 21.2167 22.0364 21.2167 21.8596C21.2167 21.6828 21.289 21.5381 21.3774 21.5381C21.4658 21.5381 21.5381 21.4094 21.5381 21.2522C21.5381 21.0948 21.6828 20.8619 21.8596 20.7345C22.0364 20.607 22.181 20.39 22.181 20.2523C22.181 20.1145 22.3257 19.8975 22.5025 19.7701C22.6793 19.6426 22.824 19.4256 22.824 19.2879C22.824 19.1501 22.9686 18.9331 23.1454 18.8057C23.3222 18.6782 23.4669 18.4612 23.4669 18.3235C23.4669 18.1857 23.6116 17.9687 23.7884 17.8413C23.9652 17.7138 24.1098 17.4968 24.1098 17.3591C24.1098 17.2213 24.2545 17.0043 24.4313 16.8769C24.6081 16.7494 24.7528 16.5455 24.7528 16.4236C24.7528 16.3019 24.9697 15.9994 25.235 15.7518C25.5002 15.5041 25.7172 15.2016 25.7172 15.0799C25.7172 14.9581 25.8618 14.7541 26.0386 14.6266C26.2154 14.4992 26.3601 14.2663 26.3601 14.1089C26.3601 13.9302 26.4805 13.823 26.6815 13.823C26.8661 13.823 27.003 13.7158 27.003 13.5714C27.003 13.433 27.3647 12.9677 27.8067 12.5371C28.2487 12.1065 28.6103 11.6766 28.6103 11.5816C28.6103 11.357 32.5722 7.39368 32.7968 7.39368C32.8908 7.39368 33.3939 6.95971 33.9145 6.42929C34.4351 5.89887 34.9576 5.4649 35.0756 5.4649C35.1936 5.4649 35.3944 5.32024 35.5218 5.14343C35.6493 4.96663 35.8532 4.82197 35.9751 4.82197C36.0968 4.82197 36.3993 4.60498 36.6469 4.33977C36.8946 4.07456 37.1971 3.85757 37.3188 3.85757C37.4406 3.85757 37.6446 3.71291 37.7721 3.53611C37.8995 3.3593 38.1165 3.21464 38.2543 3.21464C38.392 3.21464 38.609 3.06999 38.7365 2.89318C38.8639 2.71637 39.0809 2.57172 39.2187 2.57172C39.3564 2.57172 39.5734 2.42706 39.7009 2.25025C39.8283 2.07345 40.0612 1.92879 40.2186 1.92879C40.3758 1.92879 40.5045 1.85646 40.5045 1.76805C40.5045 1.67965 40.6492 1.60732 40.826 1.60732C41.0028 1.60732 41.1474 1.53499 41.1474 1.44659C41.1474 1.35819 41.2921 1.28586 41.4689 1.28586C41.6457 1.28586 41.7904 1.21353 41.7904 1.12513C41.7904 1.03672 41.9191 0.964393 42.0763 0.964393C42.2337 0.964393 42.4666 0.819734 42.594 0.642929C42.7302 0.454229 43.0102 0.321464 43.2725 0.321464C43.5181 0.321464 43.7192 0.249135 43.7192 0.160732C43.7192 0.0723295 43.5022 0 43.237 0C42.9718 0 42.7548 0.0723295 42.7548 0.160732Z" fill="#C3C3C3"/>
<path d="M10.6077 14.7873C10.7845 14.7873 10.9291 14.715 10.9291 14.6266C10.9291 14.5381 11.2185 14.4658 11.5721 14.4658C11.9257 14.4658 12.215 14.5381 12.215 14.6266C12.215 14.715 12.432 14.7873 12.6972 14.7873C12.9624 14.7873 13.1794 14.8596 13.1794 14.948C13.1794 15.0364 13.293 15.1087 13.4319 15.1087C13.7418 15.1087 14.1438 15.4908 14.1438 15.7851C14.1438 15.9045 14.2884 16.1064 14.4652 16.2339C14.7393 16.4314 14.7867 16.65 14.7867 17.716C14.7867 18.4423 14.7194 18.9663 14.626 18.9663C14.5376 18.9663 14.4652 19.111 14.4652 19.2878C14.4652 19.4646 14.3929 19.6093 14.3045 19.6093C14.2161 19.6093 14.1438 19.7539 14.1438 19.9307C14.1438 20.145 14.0366 20.2522 13.8223 20.2522C13.6455 20.2522 13.5009 20.3245 13.5009 20.4129C13.5009 20.5013 13.3562 20.5736 13.1794 20.5736C13.0026 20.5736 12.8579 20.646 12.8579 20.7344C12.8579 20.8281 12.3222 20.8951 11.5721 20.8951C10.8219 20.8951 10.2862 20.8281 10.2862 20.7344C10.2862 20.646 10.1745 20.5736 10.0379 20.5736C9.71625 20.5736 9.00035 19.8577 9.00035 19.5361C9.00035 19.3995 8.92802 19.2878 8.83962 19.2878C8.75122 19.2878 8.67889 19.1431 8.67889 18.9663C8.67889 18.7895 8.60656 18.6449 8.51815 18.6449C8.42975 18.6449 8.35742 18.2832 8.35742 17.8412C8.35742 17.3992 8.42975 17.0375 8.51815 17.0375C8.60656 17.0375 8.67889 16.8543 8.67889 16.6304C8.67889 16.1776 9.63476 15.1087 10.0398 15.1087C10.1753 15.1087 10.2862 15.0364 10.2862 14.948C10.2862 14.8596 10.4309 14.7873 10.6077 14.7873Z" fill="#FFFA46"/>
</svg>
