<svg width="952" height="289" viewBox="0 0 952 289" fill="none" xmlns="http://www.w3.org/2000/svg">
<path d="M281.788 141.449V234.061H257.267V220.705C253.91 224.646 249.385 228.295 243.692 231.652C238 234.863 231.359 236.469 223.769 236.469C214.865 236.469 206.911 234.644 199.905 230.995C192.899 227.201 187.352 221.654 183.265 214.356C179.178 207.058 177.135 198.228 177.135 187.864C177.135 177.793 179.251 168.963 183.484 161.373C187.717 153.637 193.336 147.726 200.342 143.639C207.495 139.406 215.303 137.289 223.769 137.289C238.803 137.289 250.042 142.836 257.486 153.929L259.237 141.449H281.788ZM230.556 216.327C237.27 216.327 242.89 214.648 247.414 211.291C252.085 207.788 255.369 202.898 257.267 196.622V176.48C255.515 170.787 252.085 166.189 246.977 162.686C242.014 159.183 236.249 157.432 229.68 157.432C221.945 157.432 215.376 160.205 209.976 165.752C204.575 171.152 201.875 178.085 201.875 186.551C201.875 192.097 203.189 197.133 205.816 201.658C208.443 206.182 211.946 209.758 216.325 212.386C220.704 215.013 225.448 216.327 230.556 216.327ZM365.129 137.508C373.74 137.508 380.892 140.136 386.585 145.39C392.423 150.499 395.415 157.14 395.561 165.314V234.061H371.04V174.071C370.748 169.255 369.288 165.46 366.661 162.686C364.18 159.913 360.385 158.454 355.276 158.308C347.686 158.308 341.41 161.592 336.448 168.16C331.631 174.582 329.223 182.829 329.223 192.9V234.061H304.701V141.449H326.814L328.566 157.87C331.923 151.447 336.739 146.485 343.016 142.982C349.438 139.333 356.809 137.508 365.129 137.508ZM451.902 100.727V141.449H475.985V160.716H451.902V234.061H427.381V160.716H411.398V141.449H427.381V100.727H451.902ZM533.796 215.451C540.656 215.451 547.589 213.042 554.595 208.226L565.761 226.398C560.798 229.463 555.471 231.944 549.778 233.842C544.086 235.593 538.612 236.469 533.358 236.469C522.703 236.469 513.434 234.353 505.553 230.12C497.817 225.887 491.832 220.048 487.6 212.605C483.513 205.161 481.469 196.622 481.469 186.989C481.469 177.939 483.805 169.619 488.475 162.03C493.146 154.44 499.495 148.455 507.523 144.077C515.551 139.552 524.308 137.289 533.796 137.289C546.348 137.289 556.784 141.011 565.104 148.455C573.424 155.753 578.97 166.116 581.743 179.545L510.369 203.628C512.851 207.423 516.135 210.342 520.222 212.386C524.308 214.429 528.833 215.451 533.796 215.451ZM531.825 156.556C524.089 156.556 517.74 159.256 512.778 164.657C507.961 170.057 505.553 177.063 505.553 185.675C505.553 187.281 505.626 188.521 505.772 189.397L554.376 172.101C552.479 167.576 549.705 163.854 546.056 160.935C542.407 158.016 537.664 156.556 531.825 156.556ZM695.199 141.449V234.498C695.199 243.11 692.863 250.846 688.192 257.706C683.668 264.712 677.245 270.186 668.926 274.127C660.752 278.213 651.484 280.257 641.12 280.257C631.049 280.257 622.657 278.651 615.942 275.44C609.228 272.375 602.441 267.85 595.581 261.866L610.031 245.008C614.702 249.386 619.445 252.743 624.262 255.079C629.079 257.56 634.552 258.801 640.683 258.801C649.732 258.801 656.957 256.538 662.358 252.014C667.758 247.635 670.531 241.651 670.677 234.061V218.516C667.466 223.916 662.65 228.295 656.227 231.652C649.951 234.863 642.58 236.469 634.114 236.469C625.649 236.469 617.84 234.353 610.688 230.12C603.536 225.741 597.843 219.83 593.611 212.386C589.378 204.796 587.261 196.403 587.261 187.208C587.261 177.866 589.451 169.401 593.83 161.811C598.354 154.075 604.266 148.09 611.564 143.858C619.008 139.479 626.889 137.289 635.209 137.289C642.945 137.289 649.951 138.676 656.227 141.449C662.65 144.077 667.466 147.58 670.677 151.958L672.648 141.449H695.199ZM641.339 216.327C648.491 216.327 654.622 214.575 659.73 211.072C664.985 207.569 668.634 202.825 670.677 196.841V176.698C668.634 170.86 664.985 166.189 659.73 162.686C654.476 159.183 648.345 157.432 641.339 157.432C633.02 157.432 626.014 160.205 620.321 165.752C614.775 171.152 612.002 178.085 612.002 186.551C612.002 192.097 613.315 197.133 615.942 201.658C618.57 206.182 622.073 209.758 626.452 212.386C630.976 215.013 635.939 216.327 641.339 216.327ZM741.899 162.905C744.381 157.943 747.884 153.491 752.408 149.55C756.933 145.609 761.531 142.617 766.202 140.573C771.018 138.384 775.032 137.289 778.243 137.289L777.149 161.811C770.434 161.227 764.45 162.467 759.196 165.533C753.941 168.452 749.854 172.539 746.935 177.793C744.016 182.902 742.556 188.375 742.556 194.214V234.061H718.035V141.449H740.148L741.899 162.905ZM886.822 141.449V234.061H862.301V220.705C858.944 224.646 854.419 228.295 848.726 231.652C843.034 234.863 836.393 236.469 828.803 236.469C819.899 236.469 811.945 234.644 804.938 230.995C797.932 227.201 792.386 221.654 788.299 214.356C784.212 207.058 782.169 198.228 782.169 187.864C782.169 177.793 784.285 168.963 788.518 161.373C792.751 153.637 798.37 147.726 805.376 143.639C812.528 139.406 820.337 137.289 828.803 137.289C843.837 137.289 855.076 142.836 862.52 153.929L864.271 141.449H886.822ZM835.59 216.327C842.304 216.327 847.924 214.648 852.448 211.291C857.119 207.788 860.403 202.898 862.301 196.622V176.48C860.549 170.787 857.119 166.189 852.01 162.686C847.048 159.183 841.282 157.432 834.714 157.432C826.978 157.432 820.41 160.205 815.01 165.752C809.609 171.152 806.909 178.085 806.909 186.551C806.909 192.097 808.223 197.133 810.85 201.658C813.477 206.182 816.98 209.758 821.359 212.386C825.738 215.013 830.481 216.327 835.59 216.327ZM934.256 63.2879V234.061H909.735V63.2879H934.256Z" fill="#2E2E38"/>
<path fill-rule="evenodd" clip-rule="evenodd" d="M291.189 1.0947C291.189 1.69678 289.712 2.18939 287.905 2.18939C286.099 2.18939 284.621 2.68201 284.621 3.28409C284.621 3.88617 283.143 4.37879 281.337 4.37879C279.531 4.37879 278.053 4.8714 278.053 5.47348C278.053 6.07557 276.575 6.56818 274.769 6.56818C272.963 6.56818 271.485 7.0608 271.485 7.66288C271.485 8.26496 270.5 8.75758 269.295 8.75758C268.091 8.75758 267.106 9.25019 267.106 9.85227C267.106 10.4544 265.628 10.947 263.822 10.947C262.016 10.947 260.538 11.4396 260.538 12.0417C260.538 12.6438 259.553 13.1364 258.348 13.1364C257.144 13.1364 256.159 13.629 256.159 14.2311C256.159 14.8331 255.174 15.3258 253.97 15.3258C252.766 15.3258 251.78 15.8184 251.78 16.4205C251.78 17.0225 250.795 17.5152 249.591 17.5152C248.387 17.5152 247.402 18.0078 247.402 18.6098C247.402 19.2119 246.416 19.7045 245.212 19.7045C244.008 19.7045 243.023 20.1972 243.023 20.7992C243.023 21.4013 242.038 21.8939 240.833 21.8939C239.629 21.8939 238.644 22.3866 238.644 22.9886C238.644 23.5907 237.659 24.0833 236.455 24.0833C235.25 24.0833 234.265 24.5759 234.265 25.178C234.265 25.7801 233.28 26.2727 232.076 26.2727C230.872 26.2727 229.886 26.7653 229.886 27.3674C229.886 27.9695 229.01 28.4621 227.939 28.4621C226.867 28.4621 225.281 29.4473 224.413 30.6515C223.545 31.8557 221.959 32.8409 220.887 32.8409C219.816 32.8409 218.939 33.3335 218.939 33.9356C218.939 34.5377 218.063 35.0303 216.992 35.0303C215.92 35.0303 214.334 36.0155 213.466 37.2197C212.598 38.4239 211.12 39.4091 210.182 39.4091C209.244 39.4091 207.766 40.3943 206.898 41.5985C206.03 42.8027 204.64 43.7879 203.811 43.7879C202.982 43.7879 200.922 45.2657 199.235 47.072C197.548 48.8782 195.594 50.3561 194.893 50.3561C194.193 50.3561 191.221 52.8191 188.288 55.8295C185.355 58.84 182.428 61.303 181.782 61.303C180.239 61.303 146.689 94.8664 146.689 96.41C146.689 97.0646 144.719 99.4926 142.311 101.807C139.902 104.121 137.932 106.75 137.932 107.65C137.932 108.551 137.317 109.538 136.563 109.843C135.528 110.262 135.587 110.669 136.805 111.516C137.691 112.131 138.034 113.017 137.567 113.484C137.1 113.95 136.297 113.651 135.782 112.818C134.999 111.552 134.561 111.589 133.105 113.045C132.147 114.003 131.364 115.364 131.364 116.067C131.364 116.772 129.886 118.73 128.08 120.417C126.273 122.104 124.795 124.272 124.795 125.234C124.795 126.198 124.303 126.985 123.701 126.985C123.099 126.985 122.606 127.862 122.606 128.932C122.606 130.004 121.621 131.59 120.417 132.458C119.213 133.326 118.227 134.804 118.227 135.742C118.227 136.681 117.242 138.158 116.038 139.027C114.834 139.895 113.848 141.481 113.848 142.553C113.848 143.623 113.356 144.5 112.754 144.5C112.152 144.5 111.659 145.485 111.659 146.689C111.659 147.894 111.166 148.879 110.564 148.879C109.962 148.879 109.47 149.756 109.47 150.826C109.47 151.898 108.484 153.484 107.28 154.352C106.076 155.22 105.091 156.807 105.091 157.878C105.091 158.949 104.598 159.826 103.996 159.826C103.394 159.826 102.902 160.811 102.902 162.015C102.902 163.219 102.409 164.205 101.807 164.205C101.205 164.205 100.712 165.19 100.712 166.394C100.712 167.598 100.22 168.583 99.6174 168.583C99.0153 168.583 98.5227 169.569 98.5227 170.773C98.5227 171.977 98.0301 172.962 97.428 172.962C96.826 172.962 96.3333 173.947 96.3333 175.152C96.3333 176.356 95.8407 177.341 95.2386 177.341C94.6366 177.341 94.1439 178.819 94.1439 180.625C94.1439 182.431 93.6513 183.909 93.0492 183.909C92.4472 183.909 91.9545 184.894 91.9545 186.098C91.9545 187.303 91.4619 188.288 90.8598 188.288C90.2578 188.288 89.7652 189.273 89.7652 190.477C89.7652 191.681 89.2725 192.667 88.6705 192.667C88.0684 192.667 87.5758 193.652 87.5758 194.856C87.5758 196.06 87.0831 197.045 86.4811 197.045C85.879 197.045 85.3864 198.523 85.3864 200.33C85.3864 202.136 84.8938 203.614 84.2917 203.614C83.6896 203.614 83.197 205.091 83.197 206.898C83.197 208.704 82.7044 210.182 82.1023 210.182C81.5002 210.182 81.0076 211.167 81.0076 212.371C81.0076 213.83 80.2774 214.561 78.8182 214.561C77.359 214.561 76.6288 213.83 76.6288 212.371C76.6288 211.167 76.1362 210.182 75.5341 210.182C74.932 210.182 74.4394 208.704 74.4394 206.898C74.4394 205.091 73.9468 203.614 73.3447 203.614C72.7426 203.614 72.25 202.628 72.25 201.424C72.25 200.22 71.7574 199.235 71.1553 199.235C70.5532 199.235 70.0606 198.25 70.0606 197.045C70.0606 195.841 69.568 194.856 68.9659 194.856C68.3638 194.856 67.8712 193.378 67.8712 191.572C67.8712 189.766 67.3786 188.288 66.7765 188.288C66.1744 188.288 65.6818 187.303 65.6818 186.098C65.6818 184.894 65.1892 183.909 64.5871 183.909C63.985 183.909 63.4924 182.924 63.4924 181.72C63.4924 180.516 62.9998 179.53 62.3977 179.53C61.7956 179.53 61.303 178.545 61.303 177.341C61.303 176.137 60.8104 175.152 60.2083 175.152C59.6063 175.152 59.1136 174.166 59.1136 172.962C59.1136 171.758 58.621 170.773 58.0189 170.773C57.4169 170.773 56.9242 169.295 56.9242 167.489C56.9242 165.682 56.4316 164.205 55.8295 164.205C55.2275 164.205 54.7348 163.219 54.7348 162.015C54.7348 160.811 54.2422 159.826 53.6402 159.826C53.0381 159.826 52.5455 158.841 52.5455 157.636C52.5455 156.432 52.0528 155.447 51.4508 155.447C50.8487 155.447 50.3561 154.462 50.3561 153.258C50.3561 152.053 49.8634 151.068 49.2614 151.068C48.6593 151.068 48.1667 149.59 48.1667 147.784C48.1667 145.978 47.6741 144.5 47.072 144.5C46.4699 144.5 45.9773 143.515 45.9773 142.311C45.9773 141.106 45.4847 140.121 44.8826 140.121C44.2805 140.121 43.7879 139.136 43.7879 137.932C43.7879 136.728 43.2953 135.742 42.6932 135.742C42.0911 135.742 41.5985 134.757 41.5985 133.553C41.5985 132.349 41.1059 131.364 40.5038 131.364C39.9017 131.364 39.4091 129.886 39.4091 128.08C39.4091 126.273 38.9165 124.795 38.3144 124.795C37.7123 124.795 37.2197 124.022 37.2197 123.076C37.2197 118.827 34.7227 118.227 17.0455 118.227C6.41164 118.227 0 118.639 0 119.322C0 119.924 0.492614 120.417 1.0947 120.417C1.69678 120.417 2.18939 121.895 2.18939 123.701C2.18939 125.507 2.68201 126.985 3.28409 126.985C3.88617 126.985 4.37879 127.97 4.37879 129.174C4.37879 130.378 4.8714 131.364 5.47348 131.364C6.07557 131.364 6.56818 132.349 6.56818 133.553C6.56818 134.757 7.0608 135.742 7.66288 135.742C8.26496 135.742 8.75758 136.728 8.75758 137.932C8.75758 139.136 9.25019 140.121 9.85227 140.121C10.4544 140.121 10.947 141.106 10.947 142.311C10.947 143.515 11.4396 144.5 12.0417 144.5C12.6438 144.5 13.1364 145.485 13.1364 146.689C13.1364 147.894 13.629 148.879 14.2311 148.879C14.8331 148.879 15.3258 149.864 15.3258 151.068C15.3258 152.272 15.8184 153.258 16.4205 153.258C17.0225 153.258 17.5152 154.243 17.5152 155.447C17.5152 156.651 18.0078 157.636 18.6098 157.636C19.2119 157.636 19.7045 158.622 19.7045 159.826C19.7045 161.03 20.1972 162.015 20.7992 162.015C21.4013 162.015 21.8939 163.493 21.8939 165.299C21.8939 167.105 22.3866 168.583 22.9886 168.583C23.5907 168.583 24.0833 169.569 24.0833 170.773C24.0833 171.977 24.5759 172.962 25.178 172.962C25.7801 172.962 26.2727 173.947 26.2727 175.152C26.2727 176.356 26.7653 177.341 27.3674 177.341C27.9695 177.341 28.4621 178.326 28.4621 179.53C28.4621 180.734 28.9547 181.72 29.5568 181.72C30.1589 181.72 30.6515 182.705 30.6515 183.909C30.6515 185.113 31.1441 186.098 31.7462 186.098C32.3483 186.098 32.8409 187.084 32.8409 188.288C32.8409 189.492 33.3335 190.477 33.9356 190.477C34.5377 190.477 35.0303 191.955 35.0303 193.761C35.0303 195.568 35.5229 197.045 36.125 197.045C36.7271 197.045 37.2197 197.922 37.2197 198.993C37.2197 200.065 38.2049 201.651 39.4091 202.519C40.6943 203.446 41.5985 205.353 41.5985 207.14C41.5985 208.812 42.0911 210.182 42.6932 210.182C43.2953 210.182 43.7879 211.167 43.7879 212.371C43.7879 213.575 44.2805 214.561 44.8826 214.561C45.4847 214.561 45.9773 215.546 45.9773 216.75C45.9773 217.954 46.4699 218.939 47.072 218.939C47.6741 218.939 48.1667 219.925 48.1667 221.129C48.1667 222.333 48.6593 223.318 49.2614 223.318C49.8634 223.318 50.3561 224.303 50.3561 225.508C50.3561 226.712 50.8487 227.697 51.4508 227.697C52.0528 227.697 52.5455 228.682 52.5455 229.886C52.5455 231.091 53.0381 232.076 53.6402 232.076C54.2422 232.076 54.7348 233.554 54.7348 235.36C54.7348 237.166 55.2275 238.644 55.8295 238.644C56.4316 238.644 56.9242 239.629 56.9242 240.833C56.9242 242.038 57.4169 243.023 58.0189 243.023C58.621 243.023 59.1136 244.008 59.1136 245.212C59.1136 246.416 59.6063 247.402 60.2083 247.402C60.8104 247.402 61.303 248.387 61.303 249.591C61.303 250.795 61.7956 251.78 62.3977 251.78C62.9998 251.78 63.4924 252.554 63.4924 253.5C63.4924 257.699 66.0474 258.348 82.5719 258.348C97.7926 258.348 98.5227 258.248 98.5227 256.159C98.5227 254.955 99.0153 253.97 99.6174 253.97C100.22 253.97 100.712 252.492 100.712 250.686C100.712 248.879 101.205 247.402 101.807 247.402C102.409 247.402 102.902 245.924 102.902 244.117C102.902 242.311 103.394 240.833 103.996 240.833C104.598 240.833 105.091 239.355 105.091 237.549C105.091 235.743 105.584 234.265 106.186 234.265C106.788 234.265 107.28 232.787 107.28 230.981C107.28 229.175 107.773 227.697 108.375 227.697C108.977 227.697 109.47 226.219 109.47 224.413C109.47 222.607 109.962 221.129 110.564 221.129C111.166 221.129 111.659 220.144 111.659 218.939C111.659 217.735 112.152 216.75 112.754 216.75C113.356 216.75 113.848 215.272 113.848 213.466C113.848 211.66 114.341 210.182 114.943 210.182C115.545 210.182 116.038 209.197 116.038 207.992C116.038 206.788 116.53 205.803 117.133 205.803C117.735 205.803 118.227 204.325 118.227 202.519C118.227 200.713 118.72 199.235 119.322 199.235C119.924 199.235 120.417 198.25 120.417 197.045C120.417 195.841 120.909 194.856 121.511 194.856C122.113 194.856 122.606 193.871 122.606 192.667C122.606 191.463 123.099 190.477 123.701 190.477C124.303 190.477 124.795 189.492 124.795 188.288C124.795 187.084 125.288 186.098 125.89 186.098C126.492 186.098 126.985 185.113 126.985 183.909C126.985 182.705 127.477 181.72 128.08 181.72C128.682 181.72 129.174 180.734 129.174 179.53C129.174 178.326 129.667 177.341 130.269 177.341C130.871 177.341 131.364 175.971 131.364 174.299C131.364 172.512 132.268 170.605 133.553 169.678C134.757 168.81 135.742 167.224 135.742 166.152C135.742 165.081 136.235 164.205 136.837 164.205C137.439 164.205 137.932 163.219 137.932 162.015C137.932 160.811 138.424 159.826 139.027 159.826C139.629 159.826 140.121 158.841 140.121 157.636C140.121 156.432 140.614 155.447 141.216 155.447C141.818 155.447 142.311 154.462 142.311 153.258C142.311 152.053 142.803 151.068 143.405 151.068C144.007 151.068 144.5 150.083 144.5 148.879C144.5 147.675 144.993 146.689 145.595 146.689C146.197 146.689 146.689 145.813 146.689 144.742C146.689 143.67 147.675 142.084 148.879 141.216C150.083 140.348 151.068 138.87 151.068 137.932C151.068 136.994 152.053 135.516 153.258 134.648C154.462 133.78 155.447 132.302 155.447 131.364C155.447 130.425 156.432 128.948 157.636 128.08C158.841 127.211 159.826 125.734 159.826 124.795C159.826 123.857 160.811 122.379 162.015 121.511C163.219 120.643 164.205 119.165 164.205 118.227C164.205 117.289 165.19 115.811 166.394 114.943C167.598 114.075 168.583 112.686 168.583 111.856C168.583 111.027 170.061 108.967 171.867 107.28C173.674 105.593 175.152 103.533 175.152 102.704C175.152 101.875 176.137 100.486 177.341 99.6174C178.545 98.7493 179.53 97.1631 179.53 96.0914C179.53 94.8741 180.35 94.1439 181.72 94.1439C182.976 94.1439 183.909 93.4138 183.909 92.4307C183.909 91.4882 186.372 88.3191 189.383 85.3864C192.393 82.4537 194.856 79.5254 194.856 78.8784C194.856 77.3491 221.839 50.3561 223.369 50.3561C224.009 50.3561 227.435 47.4004 230.981 43.7879C234.527 40.1754 238.086 37.2197 238.889 37.2197C239.693 37.2197 241.06 36.2345 241.928 35.0303C242.796 33.8261 244.185 32.8409 245.015 32.8409C245.844 32.8409 247.904 31.3631 249.591 29.5568C251.278 27.7506 253.338 26.2727 254.167 26.2727C254.997 26.2727 256.386 25.2875 257.254 24.0833C258.122 22.8792 259.6 21.8939 260.538 21.8939C261.476 21.8939 262.954 20.9087 263.822 19.7045C264.69 18.5004 266.168 17.5152 267.106 17.5152C268.044 17.5152 269.522 16.5299 270.39 15.3258C271.258 14.1216 272.844 13.1364 273.916 13.1364C274.987 13.1364 275.864 12.6438 275.864 12.0417C275.864 11.4396 276.849 10.947 278.053 10.947C279.257 10.947 280.242 10.4544 280.242 9.85227C280.242 9.25019 281.228 8.75758 282.432 8.75758C283.636 8.75758 284.621 8.26496 284.621 7.66288C284.621 7.0608 285.498 6.56818 286.569 6.56818C287.64 6.56818 289.227 5.58295 290.095 4.37879C291.022 3.09361 292.929 2.18939 294.715 2.18939C296.388 2.18939 297.758 1.69678 297.758 1.0947C297.758 0.492614 296.28 0 294.473 0C292.667 0 291.189 0.492614 291.189 1.0947Z" fill="#2E2E38"/>
<path d="M72.2501 100.712C73.4542 100.712 74.4395 100.22 74.4395 99.6174C74.4395 99.0153 76.4099 98.5227 78.8183 98.5227C81.2266 98.5227 83.197 99.0153 83.197 99.6174C83.197 100.22 84.6749 100.712 86.4811 100.712C88.2874 100.712 89.7652 101.205 89.7652 101.807C89.7652 102.409 90.5392 102.902 91.485 102.902C93.5956 102.902 96.3334 105.504 96.3334 107.508C96.3334 108.321 97.3186 109.696 98.5228 110.564C100.389 111.91 100.712 113.399 100.712 120.659C100.712 125.606 100.254 129.174 99.6175 129.174C99.0154 129.174 98.5228 130.159 98.5228 131.364C98.5228 132.568 98.0302 133.553 97.4281 133.553C96.826 133.553 96.3334 134.538 96.3334 135.742C96.3334 137.202 95.6032 137.932 94.144 137.932C92.9398 137.932 91.9546 138.424 91.9546 139.027C91.9546 139.629 90.9694 140.121 89.7652 140.121C88.5611 140.121 87.5758 140.614 87.5758 141.216C87.5758 141.854 83.9272 142.311 78.8183 142.311C73.7093 142.311 70.0607 141.854 70.0607 141.216C70.0607 140.614 69.2999 140.121 68.3694 140.121C66.1789 140.121 61.3031 135.245 61.3031 133.055C61.3031 132.124 60.8105 131.364 60.2084 131.364C59.6063 131.364 59.1137 130.378 59.1137 129.174C59.1137 127.97 58.6211 126.985 58.019 126.985C57.4169 126.985 56.9243 124.522 56.9243 121.511C56.9243 118.501 57.4169 116.038 58.019 116.038C58.6211 116.038 59.1137 114.79 59.1137 113.265C59.1137 110.181 65.6239 102.902 68.3825 102.902C69.3053 102.902 70.0607 102.409 70.0607 101.807C70.0607 101.205 71.0459 100.712 72.2501 100.712Z" fill="#FFFA46"/>
</svg>
